<svg xmlns="http://www.w3.org/2000/svg" viewBox="0 0 1916.11 1185.12"><defs><style>.cls-1{fill:#b6dce1;}.cls-13,.cls-14,.cls-15,.cls-16,.cls-17,.cls-19,.cls-2,.cls-20,.cls-21,.cls-22,.cls-23,.cls-4,.cls-5,.cls-9{fill:none;}.cls-15,.cls-16,.cls-17,.cls-18,.cls-19,.cls-2,.cls-20,.cls-21,.cls-22,.cls-23{stroke:#000;}.cls-12,.cls-13,.cls-14,.cls-15,.cls-16,.cls-17,.cls-18,.cls-19,.cls-2,.cls-20,.cls-21,.cls-22,.cls-23,.cls-4,.cls-5,.cls-6,.cls-8{stroke-miterlimit:10;}.cls-2,.cls-5,.cls-6{stroke-width:1.5px;}.cls-3,.cls-8{fill:#fff;}.cls-12,.cls-13,.cls-4,.cls-5,.cls-6,.cls-8,.cls-9{stroke:#231f20;}.cls-10,.cls-12,.cls-18,.cls-6{fill:#f6df88;}.cls-7{fill:#231f20;}.cls-8{stroke-width:1.12px;}.cls-9{stroke-linecap:round;stroke-linejoin:round;stroke-width:1.14px;}.cls-11{fill:#b7cd96;}.cls-12{stroke-width:1.31px;}.cls-13{stroke-width:0.87px;}.cls-14{stroke:#f6df88;stroke-width:25px;}.cls-15,.cls-18{stroke-width:1.31px;}.cls-16{stroke-width:1.22px;}.cls-17{stroke-width:1.01px;}.cls-19{stroke-width:1.26px;}.cls-20{stroke-width:1.1px;}.cls-21{stroke-width:1.03px;}.cls-22{stroke-width:0.84px;}.cls-23{stroke-width:0.91px;}</style></defs><g id="Layer_2" data-name="Layer 2"><g id="Layer_7" data-name="Layer 7"><path class="cls-1" d="M1801.71,592.56c0,263.38-261.23,486.62-622.55,563.75-.31.07-.63.14-.94.19q-57.18,12.16-117.5,19.32a1367.53,1367.53,0,0,1-159.86,9.3,1365.22,1365.22,0,0,1-174-11c-37.87-4.87-74.92-11.32-110.93-19.21l-.94-.21C257.58,1076.05,0,854.09,0,592.56c0-105.22,41.68-204,114.8-289.65,0,0,0,0,0,0l.17-.21c2.37-2.79,4.78-5.55,7.23-8.31l.33-.38a672.15,672.15,0,0,1,86.54-81c.61-.47,1.2-.95,1.81-1.43h0q3.56-2.78,7.16-5.53l0,0,1.64-1.24C384.89,79.33,628.8,0,900.86,0c192.4,0,370.7,39.68,517.05,107.27l2.5,1.15c.36.16.7.32,1.06.5l2.47,1.15q28.85,13.53,56,28.54c.25.14.5.28.76.41q20.26,11.21,39.49,23.2C1693.55,270.21,1801.71,423.08,1801.71,592.56Z"/><rect class="cls-2" x="295.35" y="155.66" width="605.5" height="846.86"/><rect class="cls-3" x="330.43" y="192.13" width="605.5" height="846.86"/><path class="cls-1" d="M617.25,264.81l.61,13.3S624,273.48,617.25,264.81Z"/><path class="cls-1" d="M620.34,277.44s7.3-2.29,3.94-12.72l-3.94,12.72Z"/><path class="cls-1" d="M623,277.08s7.58,1.09,9-9.78l-9,9.78Z"/><path class="cls-1" d="M626.89,292c-1.6-.43-2.44-.7-2.44-.7l.44-2.1,1.57.29.17-.36,1.19.52-.05-.29.33-.06-.33-.8-1.89-.38-.56-.12c.47-.4,23.85-14.51,23.85-14.51s.78,1.27-1.29,3.42A60.13,60.13,0,0,1,640,282l10.66-4.74s.75,2.8-6.68,6.44c4.05-1.29,7.31-2.34,7.3-2.37-.48,1.74-2.69,3.28-5.51,4.57l5-.94s.09,2.89-8.32,4.55l6.38-.21s-.31,2.44-7.25,3l4.91.92s-.79,2.21-7.26,1.39l4,1.72s-1.49,2.37-9.21-.92a63.18,63.18,0,0,1-6.61-3.16l-.52,0Z"/><path class="cls-1" d="M626.19,310.33c.42,4.47,5.9,7.39,5.9,7.39l-.39-8.51h0l-.11-2.38c2.17,4,4,3.73,4,3.73l-1.45-4.7c4.09,6.19,6.58,5.24,6.58,5.24l-2.85-4.92c5.61,5.6,7.94,4.05,7.94,4.05l-4.91-5.35c7.67,6,10.1,3.81,10.1,3.81l-4.51-3.61c3.2,1.48,6.17,2.25,8,1.37,0,0-3.33-2-7.45-4.55,8.65,3.72,10.51,1,10.51,1l-12-5.69c4.61,1.55,8.89,2.87,10.26,3,3.39.19,3.92-1.42,3.92-1.42s-23.33-7.69-29-9.47l-.29-6.32a6.58,6.58,0,0,0-6.86-6.26l-5.34.24a2.35,2.35,0,0,0-2.23,2.45l.46,10.25a12.73,12.73,0,0,0-1.19,14.17c-3.28,2.18-4.32,7.14-4.32,7.14l8.26-2.83A12.65,12.65,0,0,0,626.19,310.33Z"/><path class="cls-1" d="M612,279.45s.38-3.29,4.84-2.07-.82,3.13-.82,3.13Z"/><path class="cls-1" d="M613.37,281.22s-.17,2.44,3.23,2.16-.18-2.38-.18-2.38Z"/><path class="cls-1" d="M617,277.43c3.75,0,7.27,2.59,7.42,6s-3.3,6.46-7.21,6.64c-.21,0-.41,0-.62,0l-.48-10.65A2.34,2.34,0,0,1,617,277.43Z"/><path class="cls-1" d="M621.13,281.49a1.42,1.42,0,1,1-1.48-1.35A1.42,1.42,0,0,1,621.13,281.49Z"/><path class="cls-1" d="M625.6,285.18a2.75,2.75,0,1,1-2.87-2.61A2.74,2.74,0,0,1,625.6,285.18Z"/><path class="cls-1" d="M620.4,281.17a.35.35,0,1,1-.37-.34A.35.35,0,0,1,620.4,281.17Z"/><path class="cls-1" d="M611.31,310.33a7.38,7.38,0,0,0-4.39-2h0a10.74,10.74,0,0,1,1.78,1.1C609.61,310.21,610.22,311,611.31,310.33Z"/><path class="cls-1" d="M611,311.22s-2.77.52-4.41-1.22h0S611.36,309.28,611,311.22Z"/><path class="cls-1" d="M610.52,310s2.6,1.1,3,3.45h0S609.14,311.46,610.52,310Z"/><path class="cls-1" d="M611.31,309.82l-.78,1.41a12.1,12.1,0,0,0,5.73-2.13A40.14,40.14,0,0,1,611.31,309.82Z"/><path class="cls-1" d="M612.11,310.82a7.38,7.38,0,0,0-3.83-2.94h0a10.7,10.7,0,0,1,1.49,1.47C610.48,310.32,610.9,311.2,612.11,310.82Z"/><path class="cls-1" d="M632,317.75a7.43,7.43,0,0,0-4.8.47h0a11.45,11.45,0,0,1,2.09.06C630.43,318.5,631.34,318.85,632,317.75Z"/><path class="cls-1" d="M632.31,318.34s-2.27,1.68-4.5.83h0S631.8,316.43,632.31,318.34Z"/><path class="cls-1" d="M630.48,317.77s2.7-.83,4.52.71h0S630.33,319.75,630.48,317.77Z"/><path class="cls-1" d="M632,317.71a7.34,7.34,0,0,0-4.78-.63h0a11,11,0,0,1,2,.53C630.39,318.09,631.19,318.64,632,317.71Z"/><path class="cls-1" d="M628.35,314.76s1.88,2.42,3.74,3C632,316.36,632,316,632,316A11.72,11.72,0,0,1,628.35,314.76Z"/><line class="cls-4" x1="433.63" y1="385.5" x2="827.98" y2="385.5"/><line class="cls-4" x1="390.03" y1="796.22" x2="637.88" y2="796.22"/><line class="cls-4" x1="390.03" y1="456.5" x2="877.52" y2="456.5"/><line class="cls-4" x1="390.03" y1="505.53" x2="877.52" y2="505.53"/><line class="cls-4" x1="390.03" y1="554.56" x2="877.52" y2="554.56"/><line class="cls-4" x1="390.03" y1="603.6" x2="877.52" y2="603.6"/><line class="cls-4" x1="390.03" y1="652.63" x2="877.52" y2="652.63"/><line class="cls-4" x1="390.03" y1="701.66" x2="877.52" y2="701.66"/><line class="cls-4" x1="390.03" y1="750.69" x2="877.52" y2="750.69"/><path class="cls-4" d="M767.7,941.24s2-65.4,11.89-51.52-4,9.15,0,32.32,33.69-.57,33.69-7.53S783.56,963,795.45,961.06s19.81-45.48,31.7-36.61,39.64-7,29.73-22.84-73.32,47.66-81.25,59.5"/><path class="cls-5" d="M199.76,645.7s-24.88,8.51,4.69,40.68c16.46,17.92,29.1,28.66,37.07,34.67a40.3,40.3,0,0,1,14,19.62h0"/><path class="cls-6" d="M429,890.82l-10.65,8.54a12,12,0,0,1-16.87-1.87L168.89,607.11a12,12,0,0,1,1.86-16.87l10.66-8.53a12,12,0,0,1,16.87,1.86L430.83,874A12,12,0,0,1,429,890.82Z"/><polygon class="cls-6" points="401.4 897.48 416.11 885.71 430.81 873.93 443.85 905.29 456.9 936.64 429.15 917.06 401.4 897.48"/><path class="cls-4" d="M194.21,638.73s15.63-1.09,29.39-23.54"/><path class="cls-4" d="M203.73,650.62s15.63-1.09,29.39-23.53"/><path class="cls-7" d="M256.07,738.33a2.4,2.4,0,1,1-2.87,1.81A2.41,2.41,0,0,1,256.07,738.33Z"/><path class="cls-8" d="M1344.16,192.6v262c0,6.86,6.47,12.47,14.38,12.47h47.36v41.73c0,6.14,7.91,9.76,13.74,6.3l81.14-48h400.39c7.91,0,14.38-5.61,14.38-12.47v-262c0-6.86-6.47-12.47-14.38-12.47H1358.54C1350.63,180.13,1344.16,185.74,1344.16,192.6Z"/><line class="cls-9" x1="1876.15" y1="321.25" x2="1568.7" y2="321.25"/><line class="cls-9" x1="1876.15" y1="364.25" x2="1568.14" y2="364.25"/><line class="cls-9" x1="1876.15" y1="408.1" x2="1531.74" y2="408.1"/><line class="cls-9" x1="1876.54" y1="272.18" x2="1646.67" y2="272.18"/><circle class="cls-10" cx="1436.59" cy="272.96" r="57.17" transform="translate(933 1645.8) rotate(-80.61)"/><circle class="cls-11" cx="1507.59" cy="375.65" r="0.36"/><rect class="cls-3" x="1421.4" y="260.25" width="84.47" height="5.11" rx="1.34" transform="translate(260.65 1136.94) rotate(-46.18)"/><path class="cls-3" d="M1407.83,255.33l31,36.42c.23.27-2.78,4.21-3.89,3.31l-31-36.42c-.23-.27,0-.86.56-1.32l1.94-1.65C1407,255.22,1407.6,255.06,1407.83,255.33Z"/><path class="cls-5" d="M1225.94,294.08s-21.2-15.56-30.7,27.09c-5.29,23.75-6.89,40.26-7.26,50.24a40.27,40.27,0,0,1-8.1,22.71h0"/><path class="cls-5" d="M1155.76,622.25l-13.09-3.87a12,12,0,0,1-8.11-14.91L1240,246.69a12,12,0,0,1,14.91-8.11l13.09,3.87a12,12,0,0,1,8.11,14.91L1170.67,614.14A12,12,0,0,1,1155.76,622.25Z"/><polygon class="cls-6" points="1134.55 603.43 1152.61 608.77 1170.68 614.11 1152.4 642.73 1134.12 671.35 1134.33 637.39 1134.55 603.43"/><path class="cls-4" d="M1228.49,285.54s9.83,12.2,36.11,10.67"/><path class="cls-4" d="M1224.18,300.15s9.82,12.2,36.1,10.67"/><path class="cls-7" d="M1182.1,393.22a2.4,2.4,0,1,1-3.12-1.32A2.39,2.39,0,0,1,1182.1,393.22Z"/><path class="cls-5" d="M1122.59,637.51h0a16.84,16.84,0,0,0,16-17.65l-15.35-312.18a16,16,0,0,0-16.76-15.19l-.84,0a16,16,0,0,0-15.2,16.76l15.39,313A16,16,0,0,0,1122.59,637.51Z"/><polygon class="cls-12" points="1138.16 619.54 1121.76 620.34 1105.34 621.15 1114.95 649.17 1124.55 677.19 1131.36 648.36 1138.16 619.54"/><path class="cls-13" d="M1124,330.78s-10.84,8.32-32.8,1.61"/><path class="cls-13" d="M1124.6,344.05s-10.84,8.32-32.8,1.61"/><rect class="cls-10" x="1055.59" y="428.56" width="203.71" height="290.64" rx="12"/><circle class="cls-14" cx="1263.92" cy="581.18" r="49.27"/><path class="cls-2" d="M1564.23,952.79A63.44,63.44,0,0,1,1501,1016H999.39c23.78-70.51,0-126.5,0-126.5H1501A63.43,63.43,0,0,1,1564.23,952.79Z"/><path class="cls-15" d="M1846.54,952.79c0,23.7-7.42,45.26-19.37,60.88S1798.73,1039,1780.6,1039H1505.82a86.2,86.2,0,1,0,0-172.4H1780.6C1816.87,866.59,1846.54,905.38,1846.54,952.79Z"/><path class="cls-16" d="M1564.23,952.79A63.44,63.44,0,0,1,1501,1016H999.39c23.78-70.51,0-126.5,0-126.5H1501A63.43,63.43,0,0,1,1564.23,952.79Z"/><path class="cls-17" d="M1564.23,952.79A63.44,63.44,0,0,1,1501,1016H999.39c23.78-70.51,0-126.5,0-126.5H1501A63.43,63.43,0,0,1,1564.23,952.79Z"/><path class="cls-17" d="M1592,952.79a86.45,86.45,0,0,1-86.2,86.2H981.14a11.48,11.48,0,0,1,0-23H1501a63.25,63.25,0,0,0,0-126.5H981.14a11.48,11.48,0,0,1,0-22.95h524.68A86.45,86.45,0,0,1,1592,952.79Z"/><path class="cls-17" d="M999.39,889.54s23.78,56,0,126.5"/><line class="cls-15" x1="1008.31" y1="924.06" x2="1153.6" y2="924.06"/><line class="cls-15" x1="1080.95" y1="952.79" x2="1444.27" y2="952.79"/><line class="cls-15" x1="1006.75" y1="987.55" x2="1362.03" y2="987.55"/><path class="cls-15" d="M1645.41,902.26s19.81,45.58,0,100.07"/><path class="cls-15" d="M1654.21,902.26s19.82,45.58,0,100.07"/><path class="cls-15" d="M1663,902.26s19.82,45.58,0,100.07"/><path class="cls-15" d="M1671.83,902.26s19.81,45.58,0,100.07"/><path class="cls-15" d="M1680.63,902.26s19.82,45.58,0,100.07"/><polygon class="cls-18" points="1280.84 952.3 1280.84 978.55 1312.49 965.42 1342.21 978.55 1342.21 952.79 1280.84 952.3"/><path class="cls-19" d="M1524.78,794.26a53.23,53.23,0,0,1-53.07,53.07H1050.79c20-59.17,0-106.15,0-106.15h420.92A53.23,53.23,0,0,1,1524.78,794.26Z"/><path class="cls-20" d="M1761.69,794.26c0,19.88-6.23,38-16.25,51.08s-23.87,21.25-39.08,21.25H1475.77a72.34,72.34,0,1,0,0-144.67h230.59C1736.79,721.92,1761.69,754.47,1761.69,794.26Z"/><path class="cls-21" d="M1524.78,794.26a53.23,53.23,0,0,1-53.07,53.07H1050.79c20-59.17,0-106.15,0-106.15h420.92A53.23,53.23,0,0,1,1524.78,794.26Z"/><path class="cls-22" d="M1524.78,794.26a53.23,53.23,0,0,1-53.07,53.07H1050.79c20-59.17,0-106.15,0-106.15h420.92A53.23,53.23,0,0,1,1524.78,794.26Z"/><path class="cls-22" d="M1548.11,794.26a72.55,72.55,0,0,1-72.34,72.33H1035.48a9.63,9.63,0,0,1,0-19.26h436.23a53.08,53.08,0,0,0,0-106.15H1035.48a9.66,9.66,0,0,1-9.64-9.64,9.66,9.66,0,0,1,9.64-9.62h440.29A72.56,72.56,0,0,1,1548.11,794.26Z"/><path class="cls-22" d="M1050.79,741.18s20,47,0,106.15"/><line class="cls-2" x1="1058.27" y1="770.14" x2="1388.15" y2="770.14"/><line class="cls-23" x1="1059.66" y1="794.26" x2="1268.26" y2="794.26"/><line class="cls-20" x1="1056.96" y1="823.42" x2="1355.1" y2="823.42"/><path class="cls-20" d="M1600.29,751.85s16.63,38.25,0,84"/><path class="cls-20" d="M1607.68,751.85s16.63,38.25,0,84"/><path class="cls-20" d="M1622.47,751.85s16.63,38.25,0,84"/></g></g></svg>