<svg xmlns="http://www.w3.org/2000/svg" viewBox="0 0 1928.88 1384.75"><defs><style>.cls-1{fill:#b6dce1;}.cls-2,.cls-7{fill:none;}.cls-2{stroke:#231f20;}.cls-2,.cls-5,.cls-6{stroke-miterlimit:10;}.cls-3{fill:#fff;}.cls-4{fill:#ff6c37;}.cls-5,.cls-6,.cls-8{fill:#f2d0b4;}.cls-5,.cls-6{stroke:#000;stroke-width:1.5px;}.cls-6{opacity:0.56;}</style></defs><g id="Layer_2" data-name="Layer 2"><g id="Layer_11" data-name="Layer 11"><path class="cls-1" d="M1928.88,732.4c0,118.81-49.65,230-136,325.05l-.58.63c-42.39,46.52-93.58,89.17-152.07,126.94-.29.2-.59.39-.89.58-105.1,67.73-233.66,119.76-376.91,150.34l-1,.21q-61.22,13-125.8,20.68a1464.07,1464.07,0,0,1-171.13,10A1461.59,1461.59,0,0,1,778.16,1355q-60.82-7.83-118.77-20.57l-1-.23q-59-13-114.46-30.71l-1.39-.45a1135.16,1135.16,0,0,1-159.74-64.55l-.41-.21C150.06,1122.43,0,938.94,0,732.4,0,619.76,44.63,514,122.9,422.31h0l.19-.22q3.81-4.49,7.73-8.9l.36-.41A720,720,0,0,1,223.83,326c.66-.51,1.28-1,1.94-1.53h0q3.79-3,7.66-5.92l0,0,1.75-1.33C412.06,183,673.18,98,964.45,98c206,0,396.86,42.48,553.53,114.84.9.41,1.79.81,2.68,1.23l1.14.53,2.64,1.24q30.88,14.49,59.9,30.55l.81.45q21.7,12,42.28,24.83C1813.08,387.3,1928.88,551,1928.88,732.4Z"/><path class="cls-2" d="M560.68,602.88c33.58-67.9,51.46-163.93,28-170.32-10.74-2.93-21.4,9.16-34.35,16.86-26,15.46-33.38-102.68-53.75-122.71-5.92-5.82-19.56,40.05-26.64,53.42C456.52,413.07,406.53,242,380.37,279.67c-3,4.38-16.65,44.67-35,38.55-8.09-2.7-67.13-75.54-108-53-7.14,3.94,51,77.15,35.79,88.68-9.51,7.22-45.48-.41-47.09,6.11-7.53,30.53,82.64,57.79,75.31,70-12.29,20.46-39.66,19.93-45.14,24.91-34.65,31.49,83.72,43.35,101.53,50.69,47.65,19.63-63.52,26.34-56.7,45.29,11.1,30.78,162.86,64.87,175.77,66.87C525.58,625.33,547.67,629.18,560.68,602.88Z"/><path class="cls-2" d="M610.59,750.06S468.85,447.55,317.39,345.74"/><path class="cls-2" d="M682.38,452.27c-75.46-6.55-166.82-41.13-160.11-64.49,3.07-10.69,18.94-13.53,32.24-20.59,26.71-14.19-70.42-81.85-77-109.65-1.9-8.08,44.38,4.07,59.49,5,37.2,2.2-83.1-129.36-37.28-132.13,5.32-.32,46.83,9,51.12-9.91,1.89-8.31-29.7-96.59,10.78-119.82,7.08-4.06,39.48,83.61,57.21,76.62,11.11-4.38,23.26-39.08,29.67-37.07,30,9.42,6.49,100.63,20.73,100.7,23.87.13,37.63-23.54,44.73-25.64,44.9-13.27-6.42,94.06-9.39,113.09-8,50.92,55.49-40.61,68.14-24.94,20.55,25.46-29.1,172.86-34.1,184.94C719.79,433.93,711.61,454.81,682.38,452.27Z"/><path class="cls-2" d="M782.26,571.35s-185-278.21-193.34-460.51"/><rect class="cls-2" x="500.3" y="193.78" width="1085.74" height="949.72" rx="37.85"/><rect class="cls-3" x="537.73" y="246.44" width="836.56" height="949.72" rx="33.23"/><path class="cls-2" d="M752.4,634.69H904.33a60.11,60.11,0,0,1,60.11,60.11v0a60.11,60.11,0,0,1-60.11,60.11h-212a0,0,0,0,1,0,0V694.8a60.11,60.11,0,0,1,60.11-60.11Z"/><circle class="cls-2" cx="799.96" cy="729.15" r="13.87"/><circle class="cls-2" cx="836.96" cy="729.15" r="13.87"/><circle class="cls-2" cx="875.27" cy="729.15" r="13.87"/><path class="cls-2" d="M1026,445.37h212a60.11,60.11,0,0,1,60.11,60.11v0A60.11,60.11,0,0,1,1238,565.59H1086.1A60.11,60.11,0,0,1,1026,505.48V445.37A0,0,0,0,1,1026,445.37Z" transform="translate(2324.12 1010.96) rotate(180)"/><circle class="cls-2" cx="1190.46" cy="539.83" r="13.87"/><circle class="cls-2" cx="1153.47" cy="539.83" r="13.87"/><circle class="cls-2" cx="1115.16" cy="539.83" r="13.87"/><line class="cls-2" x1="1420.22" y1="539.83" x2="1570.83" y2="539.83"/><line class="cls-2" x1="1420.22" y1="565.59" x2="1570.83" y2="565.59"/><line class="cls-2" x1="1420.22" y1="591.35" x2="1570.83" y2="591.35"/><line class="cls-2" x1="1420.22" y1="617.11" x2="1570.83" y2="617.11"/><line class="cls-2" x1="1420.22" y1="642.88" x2="1570.83" y2="642.88"/><line class="cls-2" x1="1420.22" y1="668.64" x2="1570.83" y2="668.64"/><line class="cls-2" x1="1420.22" y1="694.4" x2="1570.83" y2="694.4"/><line class="cls-2" x1="602.46" y1="313.67" x2="1552.33" y2="313.67"/><circle class="cls-2" cx="629.87" cy="293.52" r="7.6"/><circle class="cls-2" cx="653.27" cy="293.52" r="7.6"/><circle class="cls-2" cx="677.42" cy="293.52" r="7.6"/><path class="cls-2" d="M283,706.11c52.21,227,143,313.57,218,350.1,111.36,54.23,210.16,9,323.67,99.08,71.38,56.67,64.72,100.32,135.41,155.23,89.51,69.52,200.24,77.27,280.74,72.66"/><path class="cls-2" d="M323.25,842.43c4.19-6.54-33-27.5-39.12-27.59-18.3-.28-34.3,29.31-22,43.83C277.82,877.12,313.4,857.69,323.25,842.43Z"/><path class="cls-2" d="M418.1,996.21c.44-7.76-42.27-7.74-47.63-4.83-16.08,8.75-15.48,42.38,2.39,49C395.57,1048.74,417,1014.33,418.1,996.21Z"/><path class="cls-2" d="M899,1244.62c.44-7.75-42.27-7.73-47.63-4.82-16.08,8.75-15.48,42.38,2.39,49C876.45,1297.15,897.89,1262.75,899,1244.62Z"/><path class="cls-2" d="M356.75,907.89c1.19,7.67,42.95-1.26,47.59-5.23,13.9-11.91,6.29-44.67-12.56-47.39C367.82,851.81,354,889.93,356.75,907.89Z"/><path class="cls-2" d="M1020.06,1346c1.19,7.67,43-1.25,47.58-5.23,13.9-11.91,6.3-44.67-12.56-47.39C1031.13,1289.88,1017.34,1328,1020.06,1346Z"/><line class="cls-2" x1="241.46" y1="658.65" x2="232.84" y2="643.38"/><circle class="cls-2" cx="232.84" cy="643.38" r="4.97"/><line class="cls-2" x1="251.68" y1="654.5" x2="246.05" y2="636.69"/><circle class="cls-2" cx="246.21" cy="636.69" r="4.97"/><line class="cls-2" x1="261.85" y1="650.38" x2="261.85" y2="634.13"/><circle class="cls-2" cx="261.85" cy="634.13" r="4.97"/><path class="cls-4" d="M343.66,621.21A90.83,90.83,0,0,1,175.3,689.44c-.7-1.72-1.34-3.46-1.92-5.2l168-68.1Q342.6,618.62,343.66,621.21Z"/><rect class="cls-4" x="869.38" y="822.25" width="439.68" height="216.66" rx="108.33"/><path class="cls-3" d="M1150.88,937.8,1087,1001.05a9.76,9.76,0,0,1-12.26,1.18l.66-143.36h0a9.8,9.8,0,0,1,12.25,1.31L1151,924A9.77,9.77,0,0,1,1150.88,937.8Z"/><rect class="cls-5" x="443.12" y="893.17" width="94.61" height="267.32" rx="47.3"/><path class="cls-5" d="M763.21,1026.78a47.17,47.17,0,0,1-13.8,33.45l-99,99a118.27,118.27,0,0,1-56.5,69l-50,74.3a1135.36,1135.36,0,0,1-161.54-65.21l46.07-68.44A118,118,0,0,1,510,1009.87V849.31a47.31,47.31,0,0,1,94.61,0V1022a46.1,46.1,0,0,1-.29,5.15,117.93,117.93,0,0,1,23.33,21l54.88-54.88a47.25,47.25,0,0,1,80.7,33.45Z"/><path class="cls-6" d="M1374.29,1006.3l-.09,1.63-39.71-2.25a121.14,121.14,0,0,1,3.44-20.92l1.87,2.61A45.54,45.54,0,0,0,1374.29,1006.3Z"/><rect class="cls-5" x="1391.82" y="780.78" width="91.16" height="257.61" rx="45.58" transform="translate(-260.83 1006.93) rotate(-35.61)"/><path class="cls-5" d="M1792.84,1056.45c-42.72,47-94.42,90.06-153.54,128.15l-157.41-50.19a122.22,122.22,0,0,1-106-27.36l-114.22-6.49a47.61,47.61,0,0,1-44.7-50.09l.22-3.91a47.62,47.62,0,0,1,50.09-44.71l67.21,3.82,19.06,1.08a56.41,56.41,0,0,1-12.86-18.18c-.3-.39-.6-.79-.89-1.2l-1.87-2.61-95-132.73A45.58,45.58,0,0,1,1317,799l26.77,37.38,52.08,72.73a122,122,0,0,1,179,77.86Z"/><polyline class="cls-7" points="1055.83 842.33 1055.83 842.33 1055.01 1018.83"/><line class="cls-7" x1="361.53" y1="646.66" x2="180.21" y2="646.66"/><path class="cls-8" d="M1794.22,1057.23c-42.49,46.68-93.8,89.47-152.43,127.37l-8-3,89-85.79,68-39.47Z"/><path class="cls-8" d="M543.52,1301.38l-.48.8-.51.83a1135.16,1135.16,0,0,1-159.74-64.55l.45-.78.53-.93Z"/></g></g></svg>