<svg xmlns="http://www.w3.org/2000/svg" viewBox="0 0 1695.03 1028.15"><defs><style>.cls-1,.cls-7{fill:#b6dce1;}.cls-12,.cls-2{fill:#fff;}.cls-10,.cls-11,.cls-12,.cls-13,.cls-15,.cls-17,.cls-18,.cls-2,.cls-3,.cls-5,.cls-6,.cls-7,.cls-8,.cls-9{stroke:#231f20;}.cls-10,.cls-11,.cls-12,.cls-13,.cls-14,.cls-15,.cls-16,.cls-17,.cls-18,.cls-2,.cls-3,.cls-5,.cls-6,.cls-7,.cls-8,.cls-9{stroke-miterlimit:10;}.cls-16,.cls-2{stroke-width:1.5px;}.cls-13,.cls-14,.cls-16,.cls-3,.cls-6,.cls-8{fill:none;}.cls-3{stroke-width:1.32px;}.cls-4,.cls-5{fill:#ffa168;}.cls-11,.cls-5{stroke-width:1.91px;}.cls-12,.cls-14,.cls-15,.cls-6,.cls-7{stroke-width:1.42px;}.cls-8{stroke-width:1.41px;}.cls-9{fill:#f2d0b5;}.cls-13,.cls-9{stroke-width:1.33px;}.cls-10,.cls-11,.cls-15,.cls-17,.cls-18{fill:#f2d0b4;}.cls-10{stroke-width:1.27px;}.cls-14{stroke:#56361b;}.cls-16{stroke:#fff;}.cls-18{stroke-width:0.96px;}</style></defs><g id="Layer_2" data-name="Layer 2"><g id="Layer_9" data-name="Layer 9"><path class="cls-1" d="M1450.75,140.73q-7.23-4.51-14.64-8.89-9.66-5.73-19.62-11.23l-.66-.36q-16.74-9.25-34.28-17.9-7.07-3.48-14.26-6.86l-2.14-1-.92-.43-2.17-1C1235.1,34.42,1080.41,0,913.5,0,737.94,0,575.9,38.07,445.43,102.36q-6.09,3-12.07,6.06a745.4,745.4,0,0,0-110.79,69.21l-1.42,1.08h0q-3.13,2.4-6.21,4.8h0l-1.57,1.24q-20.46,16.11-38.91,33.32-14.49,13.51-27.67,27.64h0c-2.87,3.09-5.71,6.2-8.49,9.33l-.29.33q-3.18,3.58-6.27,7.21l-.15.18h0a467.07,467.07,0,0,0-44.2,60.86,397.54,397.54,0,0,0-33.14,68.15q-4.38,11.79-7.91,23.78A346.29,346.29,0,0,0,132,511.66c0,.8,0,1.61,0,2.41a344.13,344.13,0,0,0,3.6,49.65,352.06,352.06,0,0,0,12.49,54.6q5.46,17.48,12.71,34.51,6.38,15,14.07,29.58c31.4,59.63,79,114.28,139.39,161.65a711.94,711.94,0,0,0,82.15,55.46,828.69,828.69,0,0,0,77.32,39.55c58.69,26.34,123.11,47.54,191.79,62.65l.82.18q46.86,10.27,96.24,16.67a1184.47,1184.47,0,0,0,151,9.58,1186.4,1186.4,0,0,0,138.68-8.07q52.24-6.17,101.94-16.76l.82-.17c69.5-14.84,134.73-35.91,194.17-62.2a830.13,830.13,0,0,0,85.38-43.69C1594.39,803.14,1695,666.34,1695,514.07,1695,367,1601.19,234.42,1450.75,140.73ZM1191.3,453.89a43.57,43.57,0,0,0,7.15,2.7h0c-.31.83-.59,1.65-.86,2.53-2.23,7.26-5.56,16.93-10,27.84-13.07,31.81-35.94,74-69.89,96.79-45.59,30.6-114.28,82.55-199.52,33.79a218.81,218.81,0,0,0-24.28-54.33l-.08-.13s0,0,0-.07c-1.32-2.38-2.69-4.72-4.08-7-2.32-3.81-4.75-7.46-7.27-10.86l-.7-.93-.06-.08c-.45-.59-.9-1.18-1.36-1.76-.82-1-1.66-2.06-2.5-3-.46-.53-.92-1.06-1.38-1.57s-.67-.73-1-1.09c-.53-.57-1.06-1.12-1.59-1.66s-1.1-1.09-1.65-1.61-1.09-1-1.65-1.5l-.83-.72-.06-.05h0a220.16,220.16,0,0,0-98.51-62.46v-3.9c20.8-.84,71.57,1.6,148,33.9,65.91,27.84,135.09-9.44,171.7-65.14a170.31,170.31,0,0,0,10.41-18.05q4.82-9.66,10-19.19s4.9,4.18,12.48,10.35C1141,420.71,1172.29,445.12,1191.3,453.89Z"/><path class="cls-2" d="M1105.18,899.52H768c40.33-34.23,67.57-72.9,74.58-118.42h188Q1030.07,840.31,1105.18,899.52Z"/><path class="cls-2" d="M1420.6,102.35H445.43a15.53,15.53,0,0,0-15.29,15.5V765.58a15.57,15.57,0,0,0,15.52,15.53H1420.6a15.56,15.56,0,0,0,15.51-15.53V117.86A15.54,15.54,0,0,0,1420.6,102.35ZM860.24,688c5.15-37-18.7-83.21-18.7-83.21l2.81.26c1.69.17,3.37.36,5,.56l2.24.29.77.11q1.35.18,2.7.39l2.67.42h.07l2.64.46c1.31.23,2.63.48,3.94.74l1.08.22.69.14,3.21.69.22,0,1.53.36c.89.2,1.79.42,2.68.65s1.49.37,2.23.57c1.39.36,2.78.73,4.16,1.13l3.22,1,2.92.91.79.26,1.44.47c.81.27,1.61.54,2.4.83.51.17,1,.34,1.51.53.22.07.43.15.65.24l1.06.38.38.15,1.25.47c.75.28,1.5.57,2.24.87,1.35.53,2.7,1.08,4,1.65.84.35,1.67.71,2.49,1.07l.19.08,2.91,1.32,2.39,1.13,2.37,1.16c.79.39,1.58.79,2.36,1.2l2.34,1.23c.34.18.69.36,1,.56l1,.55.53.29,1.39.79h0l.22.12a1.13,1.13,0,0,1,.21.12l1.18.68,1.17.69c18.32,10.89,39,24.11,51.56,41.75,3.15,4.41,6.72,10,6,15.69ZM1191.3,453.89a43.57,43.57,0,0,0,7.15,2.7h0c-.31.83-.59,1.65-.86,2.53-2.23,7.26-5.56,16.93-10,27.84-13.07,31.81-35.94,74-69.89,96.79-45.59,30.6-114.28,82.55-199.52,33.79a218.81,218.81,0,0,0-24.28-54.33l-.08-.13s0,0,0-.07c-1.32-2.38-2.69-4.72-4.08-7-2.32-3.81-4.75-7.46-7.27-10.86l-.7-.93-.06-.08c-.45-.59-.9-1.18-1.36-1.76-.82-1-1.66-2.06-2.5-3-.46-.53-.92-1.06-1.38-1.57s-.67-.73-1-1.09c-.53-.57-1.06-1.12-1.59-1.66s-1.1-1.09-1.65-1.61-1.09-1-1.65-1.5l-.83-.72-.06-.05h0a220.16,220.16,0,0,0-98.51-62.46v-3.9c20.8-.84,71.57,1.6,148,33.9,65.91,27.84,135.09-9.44,171.7-65.14a170.31,170.31,0,0,0,10.41-18.05q4.82-9.66,10-19.19s4.9,4.18,12.48,10.35C1141,420.71,1172.29,445.12,1191.3,453.89Z"/><path class="cls-1" d="M1386,142.9H483.39a17.07,17.07,0,0,0-17,17V671a17,17,0,0,0,9.05,15,16.76,16.76,0,0,0,8,2H860.24c5.15-37-18.7-83.21-18.7-83.21l2.81.26c1.69.17,3.37.36,5,.56l2.24.29.77.11q1.35.18,2.7.39l2.67.42h.07l2.64.46c1.31.23,2.63.48,3.94.74l1.08.22.69.14,3.21.69.22,0,1.53.36c.89.2,1.79.42,2.68.65s1.49.37,2.23.57c1.39.36,2.78.73,4.16,1.13l3.22,1,2.92.91.79.26,1.44.47c.81.27,1.61.54,2.4.83.51.17,1,.34,1.51.53.22.07.43.15.65.24l1.06.38.38.15,1.25.47c.75.28,1.5.57,2.24.87,1.35.53,2.7,1.08,4,1.65.84.35,1.67.71,2.49,1.07l.19.08,2.91,1.32,2.39,1.13,2.37,1.16c.79.39,1.58.79,2.36,1.2l2.34,1.23c.34.18.69.36,1,.56l1,.55.53.29,1.39.79h0l.22.12a1.13,1.13,0,0,1,.21.12l1.18.68,1.17.69c18.32,10.89,39,24.11,51.56,41.75,3.15,4.41,6.72,10,6,15.69H1386a17.06,17.06,0,0,0,17-17V159.92A17.07,17.07,0,0,0,1386,142.9ZM1198.45,456.6c-.31.83-.59,1.65-.86,2.53-2.23,7.26-5.56,16.93-10,27.84-13.07,31.81-35.94,74-69.89,96.79-45.59,30.6-114.28,82.55-199.52,33.79a218.81,218.81,0,0,0-24.28-54.33l-.08-.13s0,0,0-.07c-1.32-2.38-2.69-4.72-4.08-7-2.32-3.81-4.75-7.46-7.27-10.86l-.7-.93-.06-.08c-.45-.59-.9-1.18-1.36-1.76-.82-1-1.66-2.06-2.5-3-.46-.53-.92-1.06-1.38-1.57s-.67-.73-1-1.09c-.53-.57-1.06-1.12-1.59-1.66s-1.1-1.09-1.65-1.61-1.09-1-1.65-1.5l-.83-.72-.06-.05h0a220.16,220.16,0,0,0-98.51-62.46v-3.9c20.8-.84,71.57,1.6,148,33.9,65.91,27.84,135.09-9.44,171.7-65.14a170.31,170.31,0,0,0,10.41-18.05q4.82-9.66,10-19.19s4.9,4.18,12.48,10.35c17.3,14.06,48.57,38.47,67.58,47.24a43.57,43.57,0,0,0,7.15,2.7Z"/><path class="cls-2" d="M678.72,899.52h510.09a21.27,21.27,0,0,1,21.27,21.27v0a18.28,18.28,0,0,1-18.28,18.28H675.73a18.28,18.28,0,0,1-18.28-18.28v0A21.27,21.27,0,0,1,678.72,899.52Z"/><path class="cls-1" d="M920.65,699.47l.61,13.3S927.35,708.15,920.65,699.47Z"/><path class="cls-1" d="M923.74,712.1s7.3-2.29,3.94-12.72l-3.94,12.72Z"/><path class="cls-1" d="M926.4,711.75s7.57,1.08,9-9.78l-9,9.78Z"/><path class="cls-1" d="M930.28,726.61c-1.59-.42-2.43-.69-2.43-.69l.44-2.11,1.57.3.17-.36,1.19.52-.05-.29.33-.07-.33-.79-1.89-.39-.56-.12c.47-.4,23.85-14.51,23.85-14.51s.78,1.28-1.29,3.42a60.93,60.93,0,0,1-7.84,5.16l10.66-4.74s.75,2.79-6.69,6.43c4.06-1.29,7.32-2.34,7.3-2.36-.47,1.73-2.68,3.27-5.5,4.56l5-.94s.09,2.89-8.32,4.56l6.38-.22s-.31,2.44-7.25,3l4.91.92s-.79,2.21-7.26,1.39l4,1.73s-1.48,2.37-9.2-.92a67,67,0,0,1-6.62-3.16l-.51,0Z"/><path class="cls-1" d="M929.59,745c.42,4.47,5.89,7.4,5.89,7.4l-.39-8.52h0L935,741.5c2.17,4,4,3.73,4,3.73l-1.45-4.7c4.09,6.19,6.58,5.23,6.58,5.23l-2.85-4.92c5.61,5.6,7.94,4.06,7.94,4.06l-4.92-5.35c7.68,6,10.11,3.8,10.11,3.8l-4.51-3.6c3.2,1.47,6.17,2.24,8,1.36,0,0-3.33-2-7.45-4.55,8.65,3.73,10.51,1,10.51,1l-12-5.7c4.61,1.55,8.89,2.87,10.26,3,3.39.2,3.92-1.42,3.92-1.42s-23.33-7.68-29-9.47l-.29-6.31a6.59,6.59,0,0,0-6.87-6.27l-5.33.25a2.35,2.35,0,0,0-2.24,2.44l.47,10.25a12.74,12.74,0,0,0-1.19,14.18c-3.28,2.17-4.32,7.14-4.32,7.14l8.26-2.83A12.64,12.64,0,0,0,929.59,745Z"/><path class="cls-1" d="M915.44,714.11s.38-3.29,4.84-2.07-.82,3.13-.82,3.13Z"/><path class="cls-1" d="M916.77,715.89s-.17,2.43,3.23,2.15-.18-2.38-.18-2.38Z"/><path class="cls-1" d="M920.35,712.1c3.75,0,7.27,2.59,7.42,5.95s-3.3,6.46-7.21,6.64h-.62L919.45,714A2.33,2.33,0,0,1,920.35,712.1Z"/><path class="cls-1" d="M924.53,716.15a1.42,1.42,0,1,1-1.48-1.35A1.42,1.42,0,0,1,924.53,716.15Z"/><path class="cls-1" d="M929,719.85a2.75,2.75,0,1,1-2.87-2.62A2.75,2.75,0,0,1,929,719.85Z"/><path class="cls-1" d="M923.8,715.83a.35.35,0,0,1-.34.37.34.34,0,0,1-.36-.34.35.35,0,0,1,.33-.37A.36.36,0,0,1,923.8,715.83Z"/><path class="cls-1" d="M914.71,745a7.43,7.43,0,0,0-4.39-2h0a11.14,11.14,0,0,1,1.77,1.1C913,744.87,913.62,745.63,914.71,745Z"/><path class="cls-1" d="M914.39,745.89s-2.77.51-4.41-1.23h0S914.76,743.94,914.39,745.89Z"/><path class="cls-1" d="M913.92,744.7s2.6,1.09,3,3.44h0S912.54,746.12,913.92,744.7Z"/><path class="cls-1" d="M914.7,744.48l-.77,1.41a12.15,12.15,0,0,0,5.73-2.12A42,42,0,0,1,914.7,744.48Z"/><path class="cls-1" d="M915.51,745.48a7.38,7.38,0,0,0-3.83-2.94h0a11.36,11.36,0,0,1,1.49,1.47C913.88,745,914.3,745.86,915.51,745.48Z"/><path class="cls-1" d="M935.36,752.42a7.36,7.36,0,0,0-4.8.47h0a10.55,10.55,0,0,1,2.09.06C933.83,753.16,934.74,753.51,935.36,752.42Z"/><path class="cls-1" d="M935.71,753s-2.27,1.68-4.5.83h0S935.2,751.09,935.71,753Z"/><path class="cls-1" d="M933.88,752.43s2.69-.82,4.52.71h0S933.73,754.41,933.88,752.43Z"/><path class="cls-1" d="M935.44,752.37a7.37,7.37,0,0,0-4.78-.62h0a10.64,10.64,0,0,1,2,.52C933.79,752.75,934.59,753.3,935.44,752.37Z"/><path class="cls-1" d="M931.75,749.42s1.88,2.42,3.73,3c-.06-1.37-.07-1.75-.07-1.75A11.72,11.72,0,0,1,931.75,749.42Z"/><path class="cls-3" d="M425.15,720S311.22,680.84,272,572.36a67.93,67.93,0,0,0-41.52-40.87C153,504.35,7.15,520.39.84,415.47-6.45,294.23,204.5,282.12,252.93,375.66a152.44,152.44,0,0,0,14.7,23.61C324.88,473,389.89,453.52,435.46,526,466,574.59,521.63,715.33,425.15,720Z"/><path class="cls-3" d="M423.28,724.7S408.83,423,89.83,409.85"/><path class="cls-3" d="M388.76,596.68s11.75-25.72,10.17-66"/><path class="cls-3" d="M407.66,645.8s-30.28,3.84-50.88-10.21"/><path class="cls-3" d="M310.7,490.61s-43.87,11-71.49,7.29"/><path class="cls-3" d="M165.49,419.25a49.6,49.6,0,0,0-21.34-36.56"/><path class="cls-3" d="M294.91,427.71c27.22-31.56-110.28-169.64-20-209.87,77.11-34.35,117.62,63.81,126.55,89.53a53.62,53.62,0,0,1,2.62,11.54c2.07,18.07,11.11,79,39.76,90.94,33.72,14-8.43,116.15-8.43,116.15"/><path class="cls-3" d="M377.39,473.48s-9.95-74.61-31.07-137.89c-9.55-28.6-21.38-54.88-35.62-70.92"/><path class="cls-3" d="M346.32,335.59s20.76-23.15,10.46-53.12"/><path class="cls-3" d="M368,419.25s-27.14,3.72-50.55-30"/><path class="cls-3" d="M377.39,467s25.28-30.91,45.89-44"/><path class="cls-3" d="M278.46,588.16s-83.73-4.08-95.9-15.32S44.87,545.67,30.82,629s104.9,69.31,148.93,51.51,86.17,37.51,86.17,37.51,26.23,27.1,98.35,36S425.15,720,425.15,720"/><path class="cls-3" d="M347.79,675.22S212.53,578.46,76.71,635.59"/><path class="cls-3" d="M285.59,642.34s-6.56-24.54-17.8-34.85"/><path class="cls-3" d="M212.25,621.24s-32.71,32.15-57.43,32.15"/><path class="cls-3" d="M108.41,624.92s-9.22-20.24-22.33-24"/><path class="cls-3" d="M353,679.29s-32.15,4.07-42.28,16.25"/><path class="cls-4" d="M533,748.39,529.39,782l-2.61,24.09-10.12,93.43-196.17,0L303.4,748.39a36.73,36.73,0,0,1,.06-8.84c1.79-13.89,11.6-24.38,24.57-24.38h180.2C523.85,715.17,535,730.39,533,748.39Z"/><path class="cls-4" d="M306.4,899.52H528.9a20.81,20.81,0,0,1,20.81,20.81v0A18.74,18.74,0,0,1,531,939.07H304.33a18.74,18.74,0,0,1-18.74-18.74v0a20.81,20.81,0,0,1,20.81-20.81Z"/><path class="cls-5" d="M647.46,270.29c7.81-9.07,11.11-17.13,23.73-26.23,6.86-4.95,26.29-19,43.08-13.11,15.11,5.27,15.43,22.21,30,25.27,40.13,8.44,37.19-64.16,28.45-85.45A82.83,82.83,0,0,0,758,147.27s-13.36,18.07-19.11,23.83c-18.24,18.25-47.47,5.44-98.91,4.28-99.86-2.28-100.73,82.07-100.06,97.5-35.66,16.7-64,63.46-54.17,92.95C494.49,392,530,394.41,531.31,417c1.22,21.11-29.35,25-40.59,58.69-8.47,25.41-3.08,59.14,16.86,74.94,10.08,8,21,9.1,41.84,11.24,19.33,2,28.48-.2,60-3.12,56.81-5.28,62.25-1.43,69.31-9.37,11.79-13.26,24.65-227.7-46-265.77A80.75,80.75,0,0,0,647.46,270.29Z"/><path class="cls-6" d="M918.16,617.55h0"/><path class="cls-7" d="M1187.56,487c-13.07,31.81-35.94,74-69.89,96.79-45.59,30.6-114.28,82.55-199.52,33.79a218.81,218.81,0,0,0-24.28-54.33l-.08-.13a.25.25,0,0,0,0-.07c-1.32-2.38-2.69-4.72-4.08-7-2.32-3.81-4.75-7.46-7.27-10.86l-.7-.93-.06-.08c-.45-.6-.91-1.18-1.36-1.76-.82-1-1.66-2.06-2.5-3l-1.38-1.57c-.33-.37-.67-.73-1-1.09-.53-.57-1.06-1.12-1.59-1.66s-1.1-1.09-1.65-1.61-1.1-1-1.65-1.5l-.83-.72-.06-.05h0a220.16,220.16,0,0,0-98.51-62.46v-3.9c20.8-.84,71.57,1.6,148,33.9,65.91,27.84,135.09-9.44,171.7-65.14,0,0,4.58,3.73,12,9.24,16.08,11.86,45.53,32,71.35,40.71a88.08,88.08,0,0,0,13.34,3.48Z"/><path class="cls-7" d="M918.15,617.55h0l-1.08-1c-52.26-50.28-107.74-102-146-140.06q-5.58-5.55-10.66-10.71a86,86,0,0,1,10.66-1v3.9a220.16,220.16,0,0,1,98.51,62.46h0l.06.05c8.93,7.54,17.1,19.27,24.19,32A218.81,218.81,0,0,1,918.15,617.55Z"/><path class="cls-7" d="M1198.45,456.59h0c-.31.83-.59,1.65-.86,2.53-2.23,7.26-5.56,16.93-10,27.84h0a88.08,88.08,0,0,1-13.34-3.48c-25.82-8.75-55.27-28.85-71.35-40.71-7.46-5.51-12-9.24-12-9.24a170.31,170.31,0,0,0,10.41-18.05q4.82-9.66,10-19.19s4.9,4.18,12.48,10.35c17.3,14.06,48.57,38.47,67.58,47.24A43.57,43.57,0,0,0,1198.45,456.59Z"/><path class="cls-6" d="M760.44,465.73s0,0,0,0"/><path class="cls-1" d="M929.93,679.29c0,2.94-.06,5.85-.17,8.75H863.24l-22.49-.62-1.41.62-1,.46c-.78.87-1.57,1.72-2.37,2.57-17.58,18.69-39.3,32.32-59.95,47.37-20.14,14.67-40.33,29.31-61.37,42.67q-5.52,3.51-11.12,6.89c-35.37,21.31-80,29.17-120.53,20.92A99,99,0,0,1,532.39,782c-.29-.29-.59-.58-.87-.88-16.14-16.28-27.1-37.87-33.12-61.46-.38-1.49-.74-3-1.09-4.48A227.28,227.28,0,0,1,492.7,688a218.47,218.47,0,0,1-.61-41.76v-.07a.25.25,0,0,1,0-.08,218.3,218.3,0,0,1,14.82-52.54c.14-.34.29-.67.43-1,.3-.68.59-1.35.9-2A217.56,217.56,0,0,1,526,558.11a220.78,220.78,0,0,1,106.1-84.87c4.41-1.66,8.87-3.17,13.41-4.56a219.62,219.62,0,0,1,34-7.47h.05c3.77-.52,7.57-.95,11.42-1.26h0q9.33-.81,18.87-.81a220.32,220.32,0,0,1,29.91,2h0a219.32,219.32,0,0,1,23.72,4.58h0c3.59.89,7.13,1.88,10.65,2.95h0a220.16,220.16,0,0,1,98.51,62.46h0l.06.05A222.89,222.89,0,0,1,896.75,563s0,0,0,.07l.08.13a218.81,218.81,0,0,1,24.28,54.33c1.09,3.76,2.1,7.58,3,11.42h0A221.06,221.06,0,0,1,929.93,679.29Z"/><path class="cls-8" d="M1326.34,941c0-38.28,27.27-69.32,60.89-69.32s60.88,31,60.88,69.32"/><line class="cls-8" x1="1326.35" y1="940.95" x2="1448.11" y2="940.95"/><line class="cls-8" x1="1387.23" y1="871.63" x2="1387.23" y2="904.42"/><path class="cls-6" d="M835.56,688.79c-20.34,17.75-40.79,33.77-62.58,49.65-23.65,17.24-47.39,34.43-72.49,49.56-35.37,21.31-80,29.17-120.53,20.92A99,99,0,0,1,529.39,782c-16.6-16.38-27.86-38.32-34-62.34-.38-1.49-.74-3-1.09-4.48a224.94,224.94,0,0,1-5.22-68.89v-.07c.13-1.42,2.2-23.51,14.83-52.62l.43-1c.3-.68.59-1.35.91-2a217.81,217.81,0,0,1,18.08-32.36c20.57-30.52,53.41-62.63,105.71-85,4.32-1.84,8.81-3.63,13.41-5.34"/><path class="cls-9" d="M761.83,271.54s18.64-9.37,31.75,10.93-10.33,31.38-10.33,31.38"/><path class="cls-10" d="M600.16,378.13s-32.54,7.68-21.67,37.34,44.61,3.9,44.61,3.9"/><path class="cls-11" d="M771.1,443v38c0,16.38-28.8,29.66-64.32,29.66a134,134,0,0,1-20.5-1.54c-25.47-4-43.82-15.05-43.82-28.12v-38.2a17.3,17.3,0,0,1,17.25-17.06h94.13A17.31,17.31,0,0,1,771,441.64C771.08,442.1,771.1,442.56,771.1,443Z"/><path class="cls-11" d="M688.67,215.34l-95.54,56.82c-21,10.61-31.84,52.11-21.23,73.06,0,0,50.75,73.39,51.2,74.15,24.1,43.28,83.28,58.56,127.86,36a92.71,92.71,0,0,0,42.43-121.26c-.35-.82-.72-1.64-1.13-2.44L755.48,259C744.87,238.06,709.62,204.73,688.67,215.34Z"/><ellipse class="cls-12" cx="729.78" cy="403.3" rx="10.1" ry="22.48"/><ellipse class="cls-13" cx="645.97" cy="339.52" rx="37.61" ry="26.32" transform="translate(-70.09 480.24) rotate(-38.84)"/><ellipse class="cls-13" cx="734.96" cy="292.27" rx="37.61" ry="26.32" transform="translate(-54.9 250.88) rotate(-18.69)"/><path class="cls-13" d="M675.26,315.93s21-2.86,23.24-15.29"/><path class="cls-3" d="M710.46,333.19a14.22,14.22,0,1,1-.38,25.29"/><path class="cls-14" d="M690.7,271.91a31.13,31.13,0,0,1,42.37-12.05"/><path class="cls-14" d="M616.21,319.19a31.13,31.13,0,0,1,36.59-24.52"/><path class="cls-6" d="M742.91,283a12.25,12.25,0,1,1-19.74,12.65"/><path class="cls-6" d="M658.49,326.67a12.25,12.25,0,1,1-19.75,12.66"/><path class="cls-15" d="M981.54,688H860.24c5.15-37-18.7-83.21-18.7-83.21,28,2.4,55.34,10.31,79.61,24.14h0c.94.53,1.86,1.07,2.78,1.62,18.32,10.89,39,24.11,51.56,41.75C978.65,676.76,982.22,682.36,981.54,688Z"/><path class="cls-6" d="M618.73,635.59c-3.05,9.94-4.87,24.49,3.74,32.22,24.33,21.79,60-14.9,78.83-27.58,40.17-27,91.22-39.62,140.24-35.4"/><path class="cls-4" d="M565,268.69s34.35,17.84,63.08,8.47c15.6-5.09,26.27-18.77,39.2-28.12,14.92-10.79,33.64-7.89,49.78-1.87,9.59,3.58,26.83,13.77,37.31,8.74,13-6.23,7.44-53.68,7.44-53.68h-109Z"/><path class="cls-4" d="M602.5,255.91s6.86,57-8.44,90-40.27,91.75-12.17,95.79S557.54,487,557.54,487L540.05,343.35l27.73-104.28Z"/><path class="cls-6" d="M593.13,272.16s10.92,23.18,52.84-4.41c9.61-9.76,19.33-21.53,33-25.45a47.68,47.68,0,0,1,34.84,3.56c11.22,5.76,23.57,12.21,36.61,11,17.59-1.59,18.52-25.47,18.52-25.47"/><path class="cls-6" d="M604,280.34s2.47,52.52-19.8,88"/><line class="cls-6" x1="1198.47" y1="456.59" x2="1198.45" y2="456.59"/><path class="cls-6" d="M860.24,688l-22.49-.62c5.17-29.68-23.88-83.39-23.88-83.39"/><path class="cls-3" d="M607.21,396.31s-11.48.12-13.09,7"/><path class="cls-3" d="M771.1,289.85s3.56-8.32,7.09-4"/><path class="cls-6" d="M893.87,563.22c10.53,19,18.64,40.21,23.19,53.28,2.55,7.34,4,12.11,4.08,12.46,0,0,0,0,0,0h0"/><line class="cls-16" x1="852.73" y1="202.23" x2="1340.21" y2="202.23"/><circle class="cls-16" cx="1196.81" cy="177.28" r="9.25"/><circle class="cls-16" cx="1234.18" cy="177.28" r="9.25"/><circle class="cls-16" cx="1270.7" cy="177.28" r="9.25"/><path class="cls-17" d="M1223.25,398.55l-32,55.34c-19-8.77-50.28-33.18-67.58-47.24l28.39-49.17a10.56,10.56,0,0,1,14.37-3.85l52.92,30.55A10.56,10.56,0,0,1,1223.25,398.55Z"/><path class="cls-18" d="M1295.25,341.39a8.74,8.74,0,0,1-2.69,5l-39.79,36.86h0a54.85,54.85,0,1,1-86.47-63.55l7.46-45.8a10.13,10.13,0,0,1,20,3.26l-7.7,47.2a10.26,10.26,0,0,0-.78,4.79l.78-4.79a9.94,9.94,0,0,1,2.43-3.42l16.3-15.12,46.44-43a10.12,10.12,0,0,1,16.86,9.09,10,10,0,0,1-3.1,5.78L1228,312c1.38.7,2.7,1.46,4,2.28l43.7-40.48a10.13,10.13,0,0,1,13.77,14.86l-42.59,39.45c.84,1.14,1.64,2.3,2.38,3.5l36.32-33.64a10.13,10.13,0,0,1,13.76,14.86L1257,352c.16,1,.29,2,.39,3l23.26-21.55a8.78,8.78,0,0,1,14.63,7.88Z"/></g></g></svg>