<svg xmlns="http://www.w3.org/2000/svg" viewBox="0 0 527.23 503.99"><defs><style>.cls-1{fill:#b6dce1;}.cls-2{fill:#231f20;}</style></defs><g id="Layer_2" data-name="Layer 2"><g id="Layer_4" data-name="Layer 4"><circle class="cls-1" cx="305.83" cy="282.59" r="221.41"/><path class="cls-2" d="M129.53,188l0,.28c-1.08,18.87,9.49,36.55,26.94,45l.18.09A31.72,31.72,0,0,1,171,247.22l.07.13c8.79,16.74,27,26.88,46.35,25.86h.29a33.79,33.79,0,0,1,20,5.19,50.6,50.6,0,0,0,53.65,0,33.76,33.76,0,0,1,19.95-5.19h.3c19.35,1,37.55-9.12,46.36-25.89l0-.09a31.79,31.79,0,0,1,14.42-13.85l.14-.07c17.44-8.48,28-26.16,26.94-45l0-.26a30.18,30.18,0,0,1,5.26-18.72,46.42,46.42,0,0,0,0-52.51,30.22,30.22,0,0,1-5.26-18.71l0-.28c1.08-18.87-9.5-36.55-27-45l-.15-.08A31.76,31.76,0,0,1,358,38.91l-.09-.18c-8.79-16.73-27-26.87-46.34-25.86l-.3,0A33.76,33.76,0,0,1,291.32,7.7h0a50.58,50.58,0,0,0-53.66,0,33.74,33.74,0,0,1-19.95,5.18h-.29c-19.36-1-37.56,9.12-46.35,25.86l-.06.12a31.76,31.76,0,0,1-14.39,13.84l-.17.08c-17.44,8.48-28,26.16-26.93,45v.26a30.24,30.24,0,0,1-5.25,18.72,46.42,46.42,0,0,0,0,52.51A30.23,30.23,0,0,1,129.53,188Zm8.15-62a46.61,46.61,0,0,0,8.11-28.87l0-.28a31,31,0,0,1,17.78-29.44l.14-.07a48,48,0,0,0,21.72-20.9l.08-.15c5.84-11.13,18.07-17.87,31.06-17.18l.29,0a49.93,49.93,0,0,0,29.5-7.67,34.21,34.21,0,0,1,36.3,0,50,50,0,0,0,29.5,7.67l.29,0c13.05-.68,25.22,6.05,31.05,17.15l.1.2a47.9,47.9,0,0,0,21.7,20.87l.13.07c11.52,5.6,18.51,17.16,17.8,29.45v.29A46.51,46.51,0,0,0,391.31,126a30.06,30.06,0,0,1,0,34,46.61,46.61,0,0,0-8.1,28.89v.27c.71,12.3-6.28,23.86-17.8,29.46l-.12.05a47.92,47.92,0,0,0-21.73,20.94l-.06.12A33,33,0,0,1,312.43,257h-.28a49.92,49.92,0,0,0-29.52,7.67,34.21,34.21,0,0,1-36.28,0,49.88,49.88,0,0,0-26.75-7.75c-.92,0-1.84,0-2.76.08h-.29a33,33,0,0,1-31.08-17.19l-.08-.16a47.91,47.91,0,0,0-21.68-20.87l-.15-.07c-11.52-5.6-18.5-17.16-17.8-29.45l0-.29a46.53,46.53,0,0,0-8.12-28.87,30.07,30.07,0,0,1,0-34Z"/><path class="cls-2" d="M216.24,231.14a8,8,0,0,0,11-2.55L321.86,77a8,8,0,1,0-13.56-8.45L213.69,220.13A8,8,0,0,0,216.24,231.14Z"/><path class="cls-2" d="M224.71,149c19.45,0,35.28-18,35.28-40.22s-15.83-40.22-35.28-40.22-35.27,18-35.27,40.22S205.27,149,224.71,149Zm0-64.47c10.65,0,19.31,10.88,19.31,24.25S235.36,133,224.71,133s-19.29-10.89-19.29-24.25S214.08,84.49,224.71,84.49Z"/><path class="cls-2" d="M275.55,188.41c0,22.17,15.83,40.22,35.28,40.22s35.27-18,35.27-40.22-15.82-40.22-35.27-40.22S275.55,166.22,275.55,188.41Zm54.58,0c0,13.36-8.66,24.24-19.3,24.24s-19.3-10.88-19.3-24.24,8.66-24.25,19.3-24.25S330.13,175,330.13,188.41Z"/><path class="cls-2" d="M436.24,318.85a41.12,41.12,0,0,0-54.3-16.56l-63.78,30.14a51.94,51.94,0,0,0-44.29-27.32L215,303.48a62.1,62.1,0,0,1-26.76-6.91l-6-3.1a105.68,105.68,0,0,0-97.88.1L84.74,280a8.14,8.14,0,0,0-7.92-8.36l-64.56-1.78a8.15,8.15,0,0,0-8.36,7.91L0,419.46a8.14,8.14,0,0,0,7.92,8.36l64.56,1.78h.23a8.15,8.15,0,0,0,8.13-7.92L81,414.9l16.77-9a28.75,28.75,0,0,1,21.47-2.35l100.16,28.11.53.13a107.06,107.06,0,0,0,22,2.27,108.64,108.64,0,0,0,45.38-9.9,7.58,7.58,0,0,0,1-.55l145.22-93.94A8.12,8.12,0,0,0,436.24,318.85ZM16.51,411.76,20,286.37l48.28,1.32-3.45,125.4ZM280,409.63a92.35,92.35,0,0,1-56.45,6.3l-99.88-28a45,45,0,0,0-33.57,3.67l-8.57,4.59,2.3-83.38a89.51,89.51,0,0,1,90.92-4.85l6,3.11a78.56,78.56,0,0,0,33.8,8.73l58.88,1.62a35.69,35.69,0,0,1,33.93,28.45l-87.69-2.41a8.14,8.14,0,0,0-.45,16.28L316,366.36h.23a8.15,8.15,0,0,0,8.14-7.92,51.93,51.93,0,0,0-.79-10.56L389,317l.2-.09a24.86,24.86,0,0,1,28.13,3.94Z"/></g></g></svg>