<svg xmlns="http://www.w3.org/2000/svg" viewBox="0 0 524.79 504.39"><defs><style>.cls-1{fill:#f6cdd7;}.cls-2{fill:#231f20;}.cls-3,.cls-4,.cls-5{fill:none;stroke:#231f20;}.cls-3,.cls-4{stroke-miterlimit:10;}.cls-3,.cls-5{stroke-width:10px;}.cls-4{stroke-width:10.69px;}.cls-5{stroke-linecap:round;stroke-linejoin:round;}</style></defs><g id="Layer_2" data-name="Layer 2"><g id="Layer_4" data-name="Layer 4"><circle class="cls-1" cx="303.39" cy="282.98" r="221.41"/><path class="cls-2" d="M221.46,164.47a53.27,53.27,0,0,0-53.21,53.21v24.09A53.27,53.27,0,0,0,221.46,295h.26a53.26,53.26,0,0,0,53.21-53.21V217.68a53.27,53.27,0,0,0-53.21-53.21Zm41.47,53.21v24.09A41.25,41.25,0,0,1,221.72,283h-.26a41.25,41.25,0,0,1-41.21-41.21V217.68a41.25,41.25,0,0,1,41.21-41.21h.26A41.25,41.25,0,0,1,262.93,217.68Z"/><path class="cls-2" d="M360,194.76a47.38,47.38,0,0,0-47.32,47.33v21.08A47.38,47.38,0,0,0,360,310.5h.23a47.39,47.39,0,0,0,47.33-47.33V242.09a47.39,47.39,0,0,0-47.33-47.33Zm35.56,47.33v21.08a35.38,35.38,0,0,1-35.33,35.33H360a35.37,35.37,0,0,1-35.32-35.33V242.09A35.36,35.36,0,0,1,360,206.76h.23A35.38,35.38,0,0,1,395.51,242.09Z"/><path class="cls-2" d="M393.6,314.15c-3.14-.2-4.76,1.77-6.32,3.67a34.1,34.1,0,0,1-53.87-1.32,6,6,0,0,0-5-2.44,52,52,0,0,0-26.7,8.08,59.07,59.07,0,0,0-41.88-21.28c-3.16-.2-4.71,1.69-6.51,3.88a39.83,39.83,0,0,1-62.89-1.54,6,6,0,0,0-5-2.44,58.9,58.9,0,0,0-40.9,17.87c-1.12,1.15-2.18,2.35-3.2,3.58a52.33,52.33,0,0,0-24.9-8.06c-3.16-.2-4.76,1.77-6.32,3.67a34.13,34.13,0,0,1-53.87-1.32,6,6,0,0,0-5-2.44A52.68,52.68,0,0,0,0,366.74v46.69a6,6,0,0,0,6,6H127.7v17.7a6,6,0,0,0,6,6H309.48a6,6,0,0,0,6-6v-17.7H437a6,6,0,0,0,6-6V366.74A52.72,52.72,0,0,0,393.6,314.15ZM12,407.43V366.74a40.94,40.94,0,0,1,36.69-40.5,46.1,46.1,0,0,0,69.91.16,40.52,40.52,0,0,1,16.06,5.77,59.09,59.09,0,0,0-7,27.91v47.35Zm291.48,23.7H139.7v-71a47.32,47.32,0,0,1,43.14-47.16,51.85,51.85,0,0,0,79.16.17,47.38,47.38,0,0,1,41.48,47ZM431,407.43H315.48V360.09a59,59,0,0,0-7-28,40,40,0,0,1,17.38-5.88,46.1,46.1,0,0,0,65,5,46.84,46.84,0,0,0,4.89-4.87A40.73,40.73,0,0,1,431,366.74Z"/><path class="cls-2" d="M82.82,310.5H83a47.38,47.38,0,0,0,47.33-47.33V242.09A47.38,47.38,0,0,0,83,194.76h-.22a47.38,47.38,0,0,0-47.33,47.33v21.08A47.38,47.38,0,0,0,82.82,310.5ZM47.49,242.09a35.36,35.36,0,0,1,35.33-35.33H83a35.38,35.38,0,0,1,35.33,35.33v21.08A35.38,35.38,0,0,1,83,298.5h-.23a35.37,35.37,0,0,1-35.32-35.33Z"/><path class="cls-3" d="M283.05,81.76v28.86a9.52,9.52,0,0,1-9.52,9.52H167.09a9.52,9.52,0,0,1-9.52-9.52V81"/><path class="cls-4" d="M315.31,65,224.46,102.5a9.1,9.1,0,0,1-7,0L127.66,65a9.1,9.1,0,0,1-.36-16.64L217.13,6.2a9.1,9.1,0,0,1,7.7,0l90.84,42.15A9.1,9.1,0,0,1,315.31,65Z"/><line class="cls-5" x1="320.54" y1="56.26" x2="320.54" y2="122.14"/></g></g></svg>