<svg xmlns="http://www.w3.org/2000/svg" viewBox="0 0 525.85 503.99"><defs><style>.cls-1{fill:#fabc8c;}.cls-2{fill:#231f20;}</style></defs><g id="Layer_2" data-name="Layer 2"><g id="Layer_4" data-name="Layer 4"><circle class="cls-1" cx="304.45" cy="282.59" r="221.41"/><g id="Calendar"><path class="cls-2" d="M397.91,43.41H361.73V28.94a28.94,28.94,0,1,0-57.87,0V43.41H246V28.94a28.94,28.94,0,0,0-57.88,0V43.41H130.22V28.94a28.94,28.94,0,1,0-57.87,0V43.41H36.17A36.17,36.17,0,0,0,0,79.58V369a36.17,36.17,0,0,0,36.17,36.17H238.74a7.24,7.24,0,1,0,0-14.47H36.17A21.76,21.76,0,0,1,14.47,369V144.69H419.61v123a7.24,7.24,0,1,0,14.47,0V79.58A36.17,36.17,0,0,0,397.91,43.41ZM318.33,28.94a14.47,14.47,0,1,1,28.93,0V72.35a14.47,14.47,0,1,1-28.93,0Zm-115.76,0a14.47,14.47,0,0,1,28.94,0V72.35a14.47,14.47,0,0,1-28.94,0Zm-115.75,0a14.47,14.47,0,1,1,28.93,0V72.35a14.47,14.47,0,1,1-28.93,0ZM419.61,130.22H14.47V79.58a21.76,21.76,0,0,1,21.7-21.7H72.35V72.35a28.94,28.94,0,1,0,57.87,0V57.88H188.1V72.35a28.94,28.94,0,0,0,57.88,0V57.88h57.88V72.35a28.94,28.94,0,1,0,57.87,0V57.88h36.18a21.76,21.76,0,0,1,21.7,21.7Z"/><path class="cls-2" d="M202.57,195.34a14.47,14.47,0,0,0-14.47-14.47H159.16a14.47,14.47,0,0,0-14.47,14.47V217a14.47,14.47,0,0,0,14.47,14.47H188.1A14.47,14.47,0,0,0,202.57,217ZM159.16,217v-21.7H188.1V217Z"/><path class="cls-2" d="M115.75,195.34a14.46,14.46,0,0,0-14.46-14.47H72.35a14.47,14.47,0,0,0-14.47,14.47V217a14.47,14.47,0,0,0,14.47,14.47h28.94A14.46,14.46,0,0,0,115.75,217ZM72.35,217v-21.7h28.94V217Z"/><path class="cls-2" d="M361.73,231.51A14.47,14.47,0,0,0,376.2,217v-21.7a14.47,14.47,0,0,0-14.47-14.47H332.8a14.47,14.47,0,0,0-14.47,14.47V217a14.47,14.47,0,0,0,14.47,14.47ZM332.8,195.34h28.93V217H332.8Z"/><path class="cls-2" d="M202.57,260.45A14.47,14.47,0,0,0,188.1,246H159.16a14.47,14.47,0,0,0-14.47,14.47v21.7a14.47,14.47,0,0,0,14.47,14.47H188.1a14.47,14.47,0,0,0,14.47-14.47Zm-43.41,21.7v-21.7H188.1v21.7Z"/><path class="cls-2" d="M115.75,260.45A14.46,14.46,0,0,0,101.29,246H72.35a14.47,14.47,0,0,0-14.47,14.47v21.7a14.47,14.47,0,0,0,14.47,14.47h28.94a14.46,14.46,0,0,0,14.46-14.47Zm-43.4,21.7v-21.7h28.94v21.7Z"/><path class="cls-2" d="M188.1,311.09H159.16a14.47,14.47,0,0,0-14.47,14.47v21.7a14.47,14.47,0,0,0,14.47,14.47H188.1a14.47,14.47,0,0,0,14.47-14.47v-21.7A14.47,14.47,0,0,0,188.1,311.09Zm-28.94,36.17v-21.7H188.1v21.7Z"/><path class="cls-2" d="M246,231.51h28.94A14.47,14.47,0,0,0,289.39,217v-21.7a14.47,14.47,0,0,0-14.47-14.47H246a14.47,14.47,0,0,0-14.47,14.47V217A14.47,14.47,0,0,0,246,231.51Zm0-36.17h28.94V217H246Z"/><path class="cls-2" d="M231.51,282.15A14.47,14.47,0,0,0,246,296.62a7.24,7.24,0,0,0,0-14.47v-21.7h28.94a7.24,7.24,0,0,0,0-14.47H246a14.47,14.47,0,0,0-14.47,14.47Z"/><path class="cls-2" d="M101.29,311.09H72.35a14.47,14.47,0,0,0-14.47,14.47v21.7a14.47,14.47,0,0,0,14.47,14.47h28.94a14.46,14.46,0,0,0,14.46-14.47v-21.7A14.46,14.46,0,0,0,101.29,311.09ZM72.35,347.26v-21.7h28.94v21.7Z"/><path class="cls-2" d="M340,246a94,94,0,1,0,94.05,94A94.05,94.05,0,0,0,340,246Zm0,173.63A79.58,79.58,0,1,1,419.61,340,79.58,79.58,0,0,1,340,419.61Z"/><path class="cls-2" d="M381.83,309.7,325.56,366,300,340.39a7.23,7.23,0,0,0-10.23,10.23l30.69,30.7a7.24,7.24,0,0,0,10.23,0l61.38-61.39a7.23,7.23,0,0,0-10.23-10.23Z"/></g></g></g></svg>