<svg xmlns="http://www.w3.org/2000/svg" viewBox="0 0 892.1 1112.05"><defs><style>.cls-1{fill:#feae76;}.cls-2{fill:#b7cd96;}.cls-3{fill:#231f20;}</style></defs><g id="Layer_2" data-name="Layer 2"><g id="Layer_4" data-name="Layer 4"><circle class="cls-1" cx="396.82" cy="396.82" r="396.82"/><circle class="cls-2" cx="889.6" cy="1109.55" r="2.5"/><path class="cls-3" d="M793.88,133.79,400.82,543.43a9.32,9.32,0,0,1-13.13.27L375.52,532a9.32,9.32,0,0,1-.28-13.13L768.31,109.25a9.31,9.31,0,0,1,13.12-.27l12.18,11.68A9.32,9.32,0,0,1,793.88,133.79Z"/><path class="cls-3" d="M197.22,274.46,412.39,527.29c1.57,1.84-19.32,29.18-27,23L170.23,297.43c-1.57-1.84.19-5.94,3.91-9.11l13.46-11.45C191.32,273.7,195.65,272.62,197.22,274.46Z"/></g></g></svg>