<svg xmlns="http://www.w3.org/2000/svg" viewBox="0 0 749.06 749.06"><defs><style>.cls-1{fill:#b7cd96;}.cls-2{fill:#f6cdd7;}.cls-3{fill:#b6dce1;}.cls-4{fill:none;}</style></defs><g id="Layer_2" data-name="Layer 2"><g id="Layer_2-2" data-name="Layer 2"><g id="Layer_3" data-name="Layer 3"><path class="cls-1" d="M748.77,359.55c-31.06,4.63-91.16-42.49-105.4-53.66-85-66.66-80.39-123.1-148-149.29-51.86-20.09-102.58-5.44-112.3-2.64-82.73,23.9-94.4,93.5-140,91.16C190.76,242.43,129.76,147,152.21,78c.76-2.32,1.6-4.59,2.52-6.79A372.82,372.82,0,0,1,374.53,0C576.36,0,740.9,159.65,748.77,359.55Z"/><path class="cls-2" d="M255,644.09c3.06,40.46,70.61,61.6,63.41,83.23-2.41,7.26-12,11.25-22.72,13.42C126.68,704.52,0,554.32,0,374.53A372.78,372.78,0,0,1,71,155.08h0a14.09,14.09,0,0,1,8.41-1C107,160.71,65.07,283,138.71,390.44c9.38,13.69,58.71,82.51,141.36,101.72,62.55,14.54,112.52-6.7,117.58,6.61C406.49,522.05,249.93,577.61,255,644.09Z"/><path class="cls-3" d="M748.62,392.67c-9.22,193.47-165.23,348.47-359.11,356.1h0c-22.48-23.14-11.94-72.8.22-100.71C424,569.5,515,563.79,513.9,529.15,512.29,478.82,333,480,317.06,411.58c-15.56-66.7,129-179.09,190.24-149.29,44.16,21.5,16.56,104.47,70,137.4C636.09,435.89,712,362,748.62,392.67Z"/></g><path class="cls-4" d="M749.06,374.53q0,9.12-.44,18.14c-9.22,193.47-165.23,348.47-359.11,356.1q-7.45.29-15,.29a376,376,0,0,1-78.87-8.32C126.68,704.52,0,554.32,0,374.53A372.78,372.78,0,0,1,71,155.08h0a376.6,376.6,0,0,1,83.73-83.82A372.82,372.82,0,0,1,374.53,0C576.36,0,740.9,159.65,748.77,359.55Q749.06,367,749.06,374.53Z"/></g></g></svg>