<svg xmlns="http://www.w3.org/2000/svg" viewBox="0 0 869.12 869.12"><defs><style>.cls-1{fill:#feae76;}.cls-2{fill:#fcfcfc;}</style></defs><g id="Layer_2" data-name="Layer 2"><g id="Layer_4" data-name="Layer 4"><circle class="cls-1" cx="434.56" cy="434.56" r="434.56"/><g id="Layer_5" data-name="Layer 5"><path class="cls-2" d="M474.27,554.13c-11,6.76-25.11,10.48-39.71,10.48s-28.7-3.72-39.72-10.48L215,443.86s-16.23-9.95-16.23,12.59V566.56c0,58,105.55,120.55,235.74,120.55s235.74-62.54,235.74-120.55V450.24c0-18.09-11.53-9.25-11.53-9.25Z"/><path class="cls-2" d="M733.58,356.15c13.82-8.48,13.82-22.34,0-30.82l-273.9-137c-13.82-8.47-36.43-8.47-50.24,0l-273.91,137c-13.81,8.48-13.81,22.34,0,30.82l273.91,168c13.81,8.48,36.42,8.48,50.24,0"/><path class="cls-2" d="M722.25,605.14V419.61s.13-8.78-5.08-5.88c-4.19,2.33-14.44,8-18,11.18-4.17,3.63-3.23,11.76-3.23,11.76V605.14c0,2.39-2.06,3.54-3,4.11a32.05,32.05,0,1,0,32.33-.06C724.23,608.64,722.25,607.53,722.25,605.14Z"/></g></g></g></svg>