<svg xmlns="http://www.w3.org/2000/svg" viewBox="0 0 1060.96 1060.96"><defs><style>.cls-1{fill:#b7cd96;}</style></defs><g id="Layer_2" data-name="Layer 2"><g id="Layer_4" data-name="Layer 4"><path class="cls-1" d="M530.48,0C237.5,0,0,237.51,0,530.48S237.5,1061,530.48,1061,1061,823.46,1061,530.48,823.46,0,530.48,0Zm-128,766.52a22.73,22.73,0,1,1-45.45,0V555.65a22.73,22.73,0,0,1,45.45,0Zm301.48,0a22.72,22.72,0,1,1-45.44,0V555.65a22.72,22.72,0,1,1,45.44,0Zm134.4-42.3c0,36.06-28.26,65.28-63.08,65.28h-50V540.36a31.26,31.26,0,0,1-.49-4.85c0-108-87.18-195.88-194.32-195.88S336.1,427.5,336.1,535.51a33.54,33.54,0,0,1-.35,3.63V789.5h-50c-34.86,0-63.11-29.24-63.11-65.28V593.68c0-29.71,19.19-54.74,45.45-62.64,2.39-143.53,119.14-259.57,262.39-259.57S790.39,387.49,792.81,531c26.29,7.88,45.55,32.93,45.55,62.67Z"/></g></g></svg>