<svg xmlns="http://www.w3.org/2000/svg" viewBox="0 0 1301.93 650.99"><defs><style>.cls-1{fill:#f9a369;}.cls-2{fill:#ffd040;}.cls-3{fill:#b7cd96;}.cls-4{fill:#ffa168;}.cls-5{fill:#feae76;}.cls-6{fill:#f6cdd7;}.cls-7{fill:#231f20;}.cls-8{fill:#b6dce1;}.cls-9{fill:#ff6c37;}.cls-10{fill:#fff;}</style></defs><g id="Layer_2" data-name="Layer 2"><g id="Слой_1" data-name="Слой 1"><path class="cls-1" d="M479.81,21.48l-3.75,152.79S405,122.65,479.81,21.48Z"/><path class="cls-2" d="M447.36,167.15s-84.32-24.5-48.23-145l48.23,145"/><path class="cls-3" d="M416.75,163.76S330.11,178,310.66,53.73l106.09,110"/><path class="cls-4" d="M375.82,335.3c18.24-5.28,27.81-8.56,27.81-8.56L398,302.69l-17.94,3.76-2-4.09-13.56,6.25.48-3.36-3.83-.63,3.61-9.24,21.62-4.89,6.4-1.45c-5.45-4.48-277.26-160.74-277.26-160.74s-8.59,14.83,15.67,39c9.84,9.79,48.6,33,91.22,57.22L98.88,172.68S91,205,177.22,244.91c-46.86-13.86-84.53-25.1-84.36-25.39,5.87,19.82,31.64,36.92,64.25,51L99.65,261s-.27,33.2,96.64,50.27L123,310.38s4.07,27.89,83.9,32.3L150.8,354.42s9.57,25.15,83.6,14.19l-45,20.76S207,416.2,294.73,376.55c38.87-17.55,61.75-29.74,75.19-37.87,3.92-.36,5.94-.59,5.94-.59Z"/><path class="cls-5" d="M467.19,519l95.49,30.47s-13.17-56.73-51.34-80.92a146.18,146.18,0,0,0-17.18-162.34l2.89-117.79a27,27,0,0,0-26.2-27.52l-61.33-1.51a75.7,75.7,0,0,0-77.3,73.59l-1.78,72.56C265.78,327.35,0,421.23,0,421.23s6.43,18.42,45.26,15.36c15.74-1.23,64.55-17.47,117-36.34L26,468.53s22,30.75,120.45-14.09c-46.71,30.18-84.34,54.37-84.46,54,21.46,9.63,55.33.05,91.71-17.62l-50.87,42.5s28.46,24.85,115.05-46.17l-55.07,62.61s27.1,17.16,90.09-48.5l-31.47,57.17s28.8,10.38,74.22-61.67l-15.46,54.29s21.41,2.77,45.34-43.79l-.67,27.27h0l-2.4,97.83s62.09-34.93,65.85-86.28A145.41,145.41,0,0,0,467.19,519Z"/><path class="cls-6" d="M292.4,149.18c-20.48-6.13-28.08-27.86-30.79-40.15,8.46-7.55,14.35-17,16.6-27.94,7-34.15-24.15-69.42-69.65-78.79S120.49,13,113.46,47.17,137.61,116.6,183.11,126a107.62,107.62,0,0,0,35.59,1.43C228.65,135.6,261.62,159.86,292.4,149.18Z"/><path class="cls-7" d="M170.07,73.15l3.59-12.07L159,56.72,155.4,68.79l-5.62-1.68,8.88-29.85,5.63,1.68-3.75,12.58,14.67,4.36L179,43.3,184.54,45l-8.88,29.85Z"/><path class="cls-7" d="M202.34,71.19c-1.8,6-7.4,9.73-14.22,7.7s-9.46-8.15-7.66-14.21S187.9,55,194.6,57A11.1,11.1,0,0,1,202.34,71.19Zm-16.68-5c-.95,3.2.08,6.75,3.88,7.88s6.6-1.28,7.55-4.48-.36-6.89-3.86-7.93C189.48,60.58,186.6,63.07,185.66,66.23Z"/><path class="cls-7" d="M214.89,53.89,206,83.7l-5.16-1.53,8.87-29.81Z"/><path class="cls-7" d="M233.51,68.49l5,1.49-6.25,21-4.91-1.45L228,86.4c-1.93,2.12-5.57,2.33-7.93,1.68-6.24-1.81-9.7-7-7.51-14.4s8.11-9.61,14.24-7.74c2.81.84,5.11,3,5.68,5.4Zm-15.75,6.74a6.29,6.29,0,0,0,4.32,8.25c8.19,2.44,12-10.32,3.79-12.75A6.24,6.24,0,0,0,217.76,75.23Z"/><path class="cls-7" d="M243.25,90.93c-1.33,4.48-8.16,2.45-6.82-2S244.59,86.41,243.25,90.93ZM250.57,64,244,86l-5.59-1.66,6.55-22Z"/><path class="cls-8" d="M684.15,89.1c-45.92-7-87.41,15.24-92.67,49.71a49.91,49.91,0,0,0,3.28,26.4c-5.31,10.42-19.14,32.14-42.18,32.23,23.72,17,57,7.58,72.28,1.79a105.88,105.88,0,0,0,40.23,14.68c45.91,7,87.4-15.24,92.67-49.71S730.07,96.11,684.15,89.1Z"/><path class="cls-7" d="M641.31,161.17,643,148.68l-15.18-2-1.65,12.48-5.82-.77,4.08-30.88,5.82.77-1.72,13,15.18,2,1.72-13,5.78.76-4.08,30.88Z"/><path class="cls-7" d="M663.16,159c2,.26,4.68-.15,6.09-1.27l3,3.86c-2.61,2.08-6.51,2.73-9.82,2.29-7.5-1-11.34-6.21-10.42-13.18.88-6.62,6-10.79,13.06-9.86,7.28,1,11.23,6.07,9.21,14.91l-17-2.24C657.28,156.28,659.36,158.53,663.16,159Zm6.54-8.39c0-2.87-2-4.57-5.09-5-2.91-.38-5.48.71-6.65,3.43Z"/><path class="cls-7" d="M685.9,135.55l-4.07,30.84-5.34-.71,4.08-30.83Z"/><path class="cls-7" d="M694.62,136.7l-4.08,30.84-5.34-.71L689.28,136Z"/><path class="cls-7" d="M716.3,159.9c-.83,6.27-5.78,10.77-12.83,9.84s-10.63-6.56-9.8-12.83,5.82-10.76,12.75-9.85A11.09,11.09,0,0,1,716.3,159.9Zm-17.25-2.28c-.44,3.31,1.14,6.66,5.07,7.18s6.32-2.3,6.75-5.61-1.44-6.75-5.06-7.23C701.93,151.45,699.48,154.36,699.05,157.62Z"/><path class="cls-7" d="M724.1,168.25c-.61,4.64-7.67,3.7-7.06-.93S724.72,163.58,724.1,168.25Zm3-27.74-3,22.76-5.78-.76,3-22.76Z"/><path class="cls-9" d="M543.16,188.25s-5.15-37.67-56.09-22.6,10.24,35.74,10.24,35.74Z"/><path class="cls-9" d="M528.3,208.93s2.51,27.89-36.53,25.47,1.45-27.34,1.45-27.34Z"/><path class="cls-2" d="M486.32,166.28c-43,.88-82.81,31.51-83.76,70.2-1,39.93,39.46,73.31,84.4,74.42,2.38.06,4.74,0,7.08-.12l3-122.4A26.86,26.86,0,0,0,486.32,166.28Z"/><circle cx="455.61" cy="214.24" r="16.26" transform="translate(-44.66 157.57) rotate(-18.72)"/><circle class="cls-9" cx="420.44" cy="258.13" r="31.54" transform="translate(-59.38 372.9) rotate(-45)"/><path class="cls-10" d="M447.61,210a4,4,0,1,0,4.14-4A4,4,0,0,0,447.61,210Z"/><path class="cls-10" d="M456.61,328.1c-7.88,29.28-47.87,33.57-47.87,33.57l1.13,1.93c-14.47-8.2-32.61-12.93-52.24-12.56-46.44.85-83.57,29.81-82.92,64.67s38.81,62.42,85.25,61.56,83.57-29.81,82.93-64.67a48.45,48.45,0,0,0-2.62-14.75C449.85,384.31,466.78,355,456.61,328.1Z"/><path class="cls-7" d="M319.5,406.19c-1.1-1.76-4.06-3.41-7.44-3.37-4.36.07-6.42,1.92-6.39,4.23,0,2.72,3.25,3.43,7,3.82,6.51.71,12.59,2.32,12.69,9.75.1,6.94-6,10-12.94,10.1-6.36.09-11.28-1.8-13.68-7.46l4.86-2.6c1.43,3.4,5.05,4.86,8.83,4.81s7.15-1.39,7.1-4.77c0-2.94-3.13-4.1-7.27-4.49-6.37-.66-12.27-2.27-12.37-9.25-.09-6.41,6.19-9.12,11.93-9.25,4.85-.07,9.9,1.24,12.32,6Z"/><path class="cls-7" d="M347.18,407.31l5.21-.07.31,21.94-5.12.07-.31-3.2c-1.21,2.6-4.62,3.89-7.06,4-6.5.14-11.36-3.8-11.47-11.5s4.87-11.6,11.28-11.64a8.06,8.06,0,0,1,7,3.46Zm-13,11.13a6.29,6.29,0,0,0,6.59,6.59c8.54-.12,8.35-13.43-.19-13.3A6.23,6.23,0,0,0,334.17,418.44Z"/><path class="cls-7" d="M361.07,398.44l.43,31.09-5.38.08-.43-31.1Z"/><path class="cls-7" d="M370,407.26l.16,11.48c0,3.33,1.9,5.85,5.37,5.8s5.57-2.89,5.52-6.22l-.16-11.21,5.39-.08.31,22-4.85.06-.4-3a9.79,9.79,0,0,1-7.38,3.4c-5.25.07-9.13-3.84-9.23-10.64l-.16-11.52Z"/><path class="cls-7" d="M399.15,400.67l.08,6.22,6.06-.09.06,4.68-6.09.08.13,9.48c0,2.09,1.2,3.1,2.89,3.07a6.21,6.21,0,0,0,2.62-.7l1.57,4.61a12.26,12.26,0,0,1-4.48,1c-4.76.24-7.91-2.43-8-7.91l-.13-9.47-4.09.06-.07-4.68,4.1,0-.08-5.65Z"/><path class="cls-7" d="M417,425.06c.06,4.68-7.05,4.78-7.12.11S416.91,420.35,417,425.06Zm-1.06-27.88.32,22.95-5.83.09-.32-23Z"/><path class="cls-2" d="M559.09,542.48s22.5-23.1,49.88-24.08h0s-13.22,6.91-20.13,13.06C578.53,540.64,571.75,549.54,559.09,542.48Z"/><path class="cls-2" d="M563,552.63s31.94,5.23,50.31-15.11h0S558.2,530.4,563,552.63Z"/><path class="cls-2" d="M568,538.88s-29.56,13.17-33.75,40.26h0S584.18,554.84,568,538.88Z"/><path class="cls-2" d="M559,536.56l9.26,16s-36.1-1.65-66.25-23C516.11,532,544,536.43,559,536.56Z"/><path class="cls-2" d="M550,548.28s16.7-27.58,43.16-34.71h0s-11.33,9.71-16.67,17.27C568.53,542.11,563.93,552.3,550,548.28Z"/><path class="cls-2" d="M323.88,632.68s31.05-8.67,55.22,4.24h0s-14.9-.68-24,1.17C341.61,640.85,331.28,645.13,323.88,632.68Z"/><path class="cls-2" d="M320,639.51s26.45,18.66,51.86,8.41h0S325.42,617.43,320,639.51Z"/><path class="cls-2" d="M340.86,632.51s-31.14-8.84-51.72,9.26h0S343,655.15,340.86,632.51Z"/><path class="cls-2" d="M322.9,632.16s28.3-15.45,54.76-8.32h0s-14.68,2.7-23.09,6.55C342,636.13,332.92,642.63,322.9,632.16Z"/><path class="cls-2" d="M364.54,597.44s-20.94,28.25-42.12,34.93c.39-15.64.46-20,.46-20S344.58,609,364.54,597.44Z"/><path class="cls-7" d="M138.39,64.1l6.55-22,5.59,1.66-6.55,22Zm7.32-26.93c1.33-4.47,8.15-2.44,6.82,2S144.36,41.7,145.71,37.17Z"/><path class="cls-7" d="M717.13,537.44H698.66V456.25l0-16.79h53.78v16.79H717.13Z"/><path class="cls-7" d="M856.91,488.22c-.28,25-15.59,49.95-49.54,49.95s-49.67-24.42-49.67-49.81,16.28-50.91,49.67-50.91S857.19,463,856.91,488.22Zm-81.27.42c.41,15.87,9,32.84,31.73,32.84s31.32-17.11,31.6-33c.28-16.28-8.83-34.49-31.6-34.49S775.22,472.36,775.64,488.64Z"/><path class="cls-7" d="M941.29,468.35c0,8.27-4.4,14.78-12.38,18.34l-1.61.72,1.69.51c11.52,3.51,15.25,15.84,15.25,21.26,0,18.75-12.15,28.26-36.11,28.26H862.19V440.51h45.94C929.21,440.51,941.29,450.66,941.29,468.35ZM879.12,480h29c14,0,16.09-7,16.09-11.18,0-5.12-4.29-12.73-16.09-12.73h-29Zm48,29.09c0-9.22-11.06-14.12-19-14.12h-29v26.57h29C917.33,521.49,927.17,518.22,927.17,509Z"/><path class="cls-7" d="M1048.67,488.22c-.28,25-15.59,49.95-49.54,49.95s-49.67-24.42-49.67-49.81,16.28-50.91,49.67-50.91S1049,463,1048.67,488.22Zm-81.27.42c.41,15.87,9,32.84,31.73,32.84s31.33-17.11,31.6-33c.28-16.28-8.82-34.49-31.6-34.49S967,472.36,967.4,488.64Z"/><path class="cls-7" d="M1103,507.91h-27.55v28.67h-18.36V439.19c15.3,0,30.61-.14,45.91-.14C1150.56,439.05,1150.7,507.91,1103,507.91Zm-27.55-16.83H1103c23.51,0,23.37-34.5,0-34.5h-27.55Z"/><path class="cls-7" d="M1214.62,439.2l-42.3,98.24h-18.83l12.93-30.08-27.68-68.16h20l10.54,29.94,6.6,19.53,7.18-19.11,12.64-30.36Z"/><path class="cls-7" d="M1283.55,537.44V497.73h-48.26v39.71h-18.52V439.22h18.52v41.39h48.26V439.22h18.38v98.22Z"/><path class="cls-9" d="M719.48,288.93V412.12H698.16V288.93Z"/><path class="cls-1" d="M785.22,298.84c0,16.74-25.38,16.74-25.38,0S785.22,282.09,785.22,298.84ZM783.29,323v87.24H761.78V323Z"/><path class="cls-8" d="M890.06,366.65c0-13.22-7.23-23.26-21-23.26-13.21,0-22.2,11.1-22.2,24.32v44.41H825.56V325.06h19.2l1.42,11.81c8.81-8.64,17.62-13,28.54-13,20.45,0,36.84,15.33,36.84,42.65v45.64h-21.5Z"/><path class="cls-3" d="M1024.49,314.52l15.87,12-9.7,12.34c6.69,7.58,9.16,16.22,9.16,25.73,0,10.75-4,25.91-18.32,32.43,14.45,7.22,18,17.62,18,28.73,0,24-18.32,38.77-43.53,38.77s-44.06-15.34-44.06-38.77h21.33c0,11.28,10.39,18.68,22.73,18.68s22-6.7,22-18.68-11.28-17.45-22-17.45c-27.14,0-44.06-16.57-44.06-43.71s19.74-44.06,44.06-44.06c6.87,0,13.92.88,19.92,4.94Zm-51.28,50.05c0,15.16,10.22,24.15,22.73,24.15,12.34,0,22.57-9.17,22.57-24.15s-10.23-24.49-22.57-24.49C983.43,340.08,973.21,349.42,973.21,364.57Z"/><path class="cls-6" d="M1102.26,324.37v45.47c0,13.22,7.23,23.27,21,23.27,13.22,0,22.2-11.11,22.2-24.32V324.37h21.33v87.06h-19.21l-1.41-11.81c-9,8.82-17.27,13.05-29.43,13.05-20.8,0-36-15.69-36-42.65V324.37Z"/><path class="cls-2" d="M1280.75,323.33h20.62v86.89H1281.1l-1-12.69c-4.94,10.22-18.51,15.15-28.2,15.33-25.73.18-44.76-15.69-44.76-46.17,0-30,19.91-45.65,45.29-45.47,11.63,0,22.74,5.46,27.67,14.1Zm-52.16,43.36c0,16.56,11.45,26.43,25.73,26.43,33.83,0,33.83-52.69,0-52.69C1240,340.43,1228.59,350.12,1228.59,366.69Z"/></g></g></svg>