<svg xmlns="http://www.w3.org/2000/svg" viewBox="0 0 524.37 500.67"><defs><style>.cls-1{fill:#f6df89;}.cls-2{fill:#231f20;}</style></defs><g id="Layer_2" data-name="Layer 2"><g id="Layer_4" data-name="Layer 4"><circle class="cls-1" cx="302.96" cy="279.26" r="221.41"/><path class="cls-2" d="M420.87,355.57h-8.42V98.65a31.64,31.64,0,0,0-31.6-31.6H289.57V43.49A43.54,43.54,0,0,0,246.08,0H185.33a43.54,43.54,0,0,0-43.49,43.49V67.05H50.56A31.63,31.63,0,0,0,19,98.65V355.57H10.53A10.55,10.55,0,0,0,0,366.11v29.11a36.24,36.24,0,0,0,36.19,36.19h359a36.24,36.24,0,0,0,36.19-36.19V366.11a10.55,10.55,0,0,0-10.54-10.54ZM289.57,96.8h2a9.63,9.63,0,0,1,0,19.25h-2Zm0,31.89h2A22.32,22.32,0,0,0,313.76,105h60.77V314.9h-15.7V280.1a52.42,52.42,0,0,0-41.18-51.2L261,216.46a9.08,9.08,0,0,1-7.11-8.84V196.75a73.91,73.91,0,0,0,35.65-63.2ZM167.67,230l5.42-1.19a21.65,21.65,0,0,0,12.6-8.12L206,235.62l-13,13Zm25,32.2-3.27,52.71H85.22V280.1a40,40,0,0,1,31.25-38.86l34.76-7.64,36.36,26.72a9.73,9.73,0,0,0,5.1,1.87Zm48.61-53.95-25.6,18.81-25.6-18.81c0-.53.05-4.82,0-5.39a73.85,73.85,0,0,0,51.15,0c0,.57,0,4.86,0,5.39Zm-35.41,45.4,9.81-9.81,9.78,9.77,3.58,61.3h-27Zm19.49-18,20.34-14.95a21.66,21.66,0,0,0,12.59,8.12l5.43,1.19-25.36,18.64Zm18.44,24.68,36.35-26.71,34.76,7.64a40,40,0,0,1,31.26,38.86v34.8H241.73l-3.09-52.71a9.67,9.67,0,0,0,5.18-1.88ZM154.47,96.59a148.34,148.34,0,0,0,26.86-3.93,6.32,6.32,0,1,0-3-12.28,135.78,135.78,0,0,1-23.89,3.54V43.49a30.89,30.89,0,0,1,30.86-30.85h60.75a30.89,30.89,0,0,1,30.85,30.85v38a64.09,64.09,0,0,1-14.6-8.83,64.39,64.39,0,0,1-15.39-17.95,9.38,9.38,0,0,0-14.28-2.37,128.35,128.35,0,0,1-27.84,18.51,6.32,6.32,0,0,0,5.56,11.35A140.51,140.51,0,0,0,238,64.36,77.1,77.1,0,0,0,254.4,82.51a76.77,76.77,0,0,0,22.53,12.58v38.46a61.23,61.23,0,0,1-122.46,0Zm23,100.16v10.86a9.12,9.12,0,0,1-7.11,8.85l-56.62,12.43A52.44,52.44,0,0,0,72.58,280.1v34.8H56.88V105h60.77a22.31,22.31,0,0,0,22.21,23.72h2v4.86A73.88,73.88,0,0,0,177.49,196.75Zm-47.26-90.32a9.64,9.64,0,0,1,9.63-9.63h2v19.25h-2A9.64,9.64,0,0,1,130.23,106.43ZM418.77,395.22a23.58,23.58,0,0,1-23.55,23.55h-359a23.58,23.58,0,0,1-23.55-23.55v-27H173.19v10.54a14.76,14.76,0,0,0,14.75,14.74h55.53a14.76,14.76,0,0,0,14.75-14.74V368.21h60.7a6.32,6.32,0,1,0,0-12.64H31.6V98.65a19,19,0,0,1,19-19h91.28v4.47h-2a22.25,22.25,0,0,0-17.22,8.17H53.93A9.7,9.7,0,0,0,44.24,102v219.2a6.31,6.31,0,0,0,6.32,6.32H380.85a6.32,6.32,0,0,0,6.32-6.32V102a9.7,9.7,0,0,0-9.69-9.69H308.77a22.25,22.25,0,0,0-17.22-8.17h-2V79.69h91.28a19,19,0,0,1,19,19V355.57h-51.4a6.32,6.32,0,0,0,0,12.64h70.36ZM185.83,378.75V368.21h59.75v10.54a2.11,2.11,0,0,1-2.11,2.1H187.94A2.1,2.1,0,0,1,185.83,378.75Zm13.8-205.26a33.44,33.44,0,0,0,15.72,4.12,34.37,34.37,0,0,0,16.43-4.12,6.32,6.32,0,0,0-6.08-11.08,20.72,20.72,0,0,1-20,0,6.32,6.32,0,1,0-6.08,11.08Zm-16.52-44a6.32,6.32,0,0,0,6.32-6.32v-13a6.32,6.32,0,1,0-12.64,0v13A6.32,6.32,0,0,0,183.11,129.48Zm65.19,0a6.31,6.31,0,0,0,6.31-6.32v-13a6.32,6.32,0,1,0-12.63,0v13A6.31,6.31,0,0,0,248.3,129.48Z"/></g></g></svg>