<svg xmlns="http://www.w3.org/2000/svg" viewBox="0 0 1595.4 1028.15"><defs><style>.cls-1,.cls-2{fill:#b6dce1;}.cls-10,.cls-11,.cls-12,.cls-13,.cls-2,.cls-3,.cls-5,.cls-6{stroke:#231f20;}.cls-10,.cls-11,.cls-13,.cls-2,.cls-3,.cls-5,.cls-6,.cls-7,.cls-8,.cls-9{stroke-miterlimit:10;}.cls-12,.cls-3,.cls-7,.cls-9{fill:none;}.cls-4{fill:#f6df89;}.cls-10,.cls-11,.cls-13,.cls-14,.cls-5,.cls-6,.cls-8{fill:#fff;}.cls-5{stroke-width:1.27px;}.cls-6{stroke-width:1.1px;}.cls-7,.cls-8,.cls-9{stroke:#fff;}.cls-7,.cls-8{stroke-width:0.87px;}.cls-10{stroke-width:1.25px;}.cls-12{stroke-linecap:round;stroke-linejoin:round;}.cls-13{stroke-width:0.98px;}.cls-14{font-size:89px;font-family:Optima-Bold, Optima;font-weight:700;}</style></defs><g id="Layer_2" data-name="Layer 2"><g id="Layer_4" data-name="Layer 4"><ellipse class="cls-1" cx="781.53" cy="514.08" rx="781.53" ry="514.08"/><path class="cls-2" d="M1326.91,591.36c-12,5.38-25.8-.75-42.25-9.79-9.87-5.42-79.78-44.36-73.54-57.8,3.55-7.64,29.22-1.69,30.06-6.33.6-3.3-12.41-6.27-27.86-17.78-10.31-7.67-23.93-20.81-21.14-26.42s19.86-.54,21.14-4.62c.9-2.88-7.2-6.72-16.52-14.54-12.53-10.5-24.71-26.05-21.79-30.38,3.41-5.08,25.37,8.6,30.38,2.64,6.86-8.16-27.56-41.9-20.48-50.86,4.34-5.49,22.49.56,32.37,5.28,18.65,8.91,23.52,20.55,32.37,18.5,9.9-2.3,10.52-18.47,17.83-18.5,8.46,0,15.15,21.52,15.86,23.78,5.23,16.85,2.41,29.2,6.6,30.39,4.55,1.28,9-13,17.84-13.21,8-.23,14.44,11.2,15.85,13.87,12.83,24.29-8.74,43.29,2,63.41,8.71,16.34,26.45,10.4,32.37,26.42s-7,35.85-15.86,49.54C1336.74,583.29,1333.43,588.44,1326.91,591.36Z"/><path class="cls-3" d="M1316.42,702.37s96.77-188.75,218.07-240.9"/><path class="cls-3" d="M1390.94,581.32c17.25,23.69,79.21,14.67,83.72-.88,2.39-8.25-11.7-17.36-8.46-22.73,5.4-9,47.6,11.65,54.63,1.24,4-6-7.67-14.12-5.34-25.58,4.7-23.09,60.17-27,59.59-38.77-.35-7.2-21.2-8.73-21.88-18.16-.37-5.08,5.43-8.21,16.13-17.52,11.61-10.1,27.59-24,25.35-29.45-3.74-9.11-60,2.33-59.68,5.33.14,1.45,7.27-3,12.8-9.35,2-2.35,10.32-8.61,9.18-11.36-2.33-5.68-26.58,5.62-47.36,12a171.74,171.74,0,0,0-64.71,37.3C1412.5,493.89,1371.7,554.9,1390.94,581.32Z"/><path class="cls-2" d="M1339.67,591.14c-37.49-38.17-71.21-99.26-57.4-109.24,6.32-4.57,16,1.1,26.25,3.23,20.49,4.29-1.84-77.92,6.83-96.45,2.52-5.39,22,22.57,29.64,30,18.93,18.24,12.18-110.27,37.89-90.87,3,2.25,21.13,26.42,31.68,17.84,4.65-3.77,26.38-67.54,58.21-62,5.55,1-15.49,64.76-3,69,7.86,2.64,29.55-11.19,32.09-7.14,11.93,19-40.57,59.19-33,65.74,12.71,11,30.42,4.05,35.14,6.13,29.82,13.11-44.6,49.61-54.52,58.89-26.54,24.8,47.45,2.68,47.36,17.22-.16,23.62-91.22,83.27-99.18,87.73C1367.7,598,1354.19,605.92,1339.67,591.14Z"/><path class="cls-3" d="M1341,703.33s22.85-240,98.15-345.69"/><path class="cls-3" d="M1367.22,695.84s-92.89-255.63-136-293.28"/><path class="cls-4" d="M1424.2,861.06H1281.72c-10.07,0-19.35-5.95-20.63-13.4l-29.47-170.45c-2.32-13.44,7.28-24.82,21.41-24.82H1452.9c14.13,0,23.73,11.38,21.41,24.82l-29.47,170.45C1443.55,855.11,1434.28,861.06,1424.2,861.06Z"/><path class="cls-5" d="M412.27,847.69H255.06c-5.13,0-11.64-2.31-18.54-6.06-22.69-12.32-40-35.85-48.19-64.35L89.43,434.6a60.22,60.22,0,0,1-1-29.64c3.88-17.23,14.31-31.39,26.12-31.46H276.18c17-.11,34.68,13.16,39.37,29.49L434.66,818.4C439.31,834.62,429.23,847.8,412.27,847.69Z"/><path class="cls-6" d="M960.86,847.11H253.63c-6.6,0-13.72-5.87-15.83-13L106.36,386.53c-2.1-7.17,1.58-13,8.18-13H821.76c6.6,0,13.73,5.86,15.83,13L969,834.07C971.14,841.24,967.46,847.11,960.86,847.11Z"/><path class="cls-4" d="M918.54,823.43H282c-5.94,0-12.35-5.28-14.25-11.73L149.5,408.91c-1.9-6.45,1.41-11.73,7.35-11.73H793.36c5.94,0,12.35,5.28,14.24,11.73L925.9,811.7C927.79,818.15,924.48,823.43,918.54,823.43Z"/><path class="cls-7" d="M483.19,834.41H320.59a3.58,3.58,0,0,1-3.38-2.14l-21.36-73.41c-.34-1.18.62-2.14,2.14-2.14H460.58a3.59,3.59,0,0,1,3.39,2.14l21.36,73.41C485.67,833.44,484.71,834.41,483.19,834.41Z"/><path class="cls-7" d="M448.82,720H286.22a3.59,3.59,0,0,1-3.38-2.13l-21.36-73.41c-.34-1.18.62-2.14,2.14-2.14h162.6a3.57,3.57,0,0,1,3.38,2.14L451,717.89C451.3,719.06,450.34,720,448.82,720Z"/><path class="cls-7" d="M415.13,605.64H252.54a3.59,3.59,0,0,1-3.39-2.14l-21.36-73.4c-.34-1.18.62-2.14,2.14-2.14h162.6a3.57,3.57,0,0,1,3.38,2.14l21.36,73.4C417.61,604.68,416.65,605.64,415.13,605.64Z"/><line class="cls-7" x1="205.3" y1="443.51" x2="780.64" y2="443.51"/><line class="cls-7" x1="691.82" y1="630.67" x2="827.23" y2="630.67"/><line class="cls-7" x1="695.16" y1="645.2" x2="830.57" y2="645.2"/><line class="cls-7" x1="700.08" y1="659.73" x2="835.49" y2="659.73"/><line class="cls-7" x1="704.41" y1="674.26" x2="839.82" y2="674.26"/><line class="cls-7" x1="708.99" y1="688.8" x2="844.41" y2="688.8"/><line class="cls-7" x1="713.83" y1="703.33" x2="849.24" y2="703.33"/><line class="cls-7" x1="716.92" y1="717.86" x2="852.33" y2="717.86"/><line class="cls-7" x1="720.88" y1="732.39" x2="856.3" y2="732.39"/><line class="cls-7" x1="724.21" y1="746.92" x2="859.62" y2="746.92"/><circle class="cls-8" cx="210.25" cy="428.65" r="4.95"/><circle class="cls-8" cx="227.73" cy="428.65" r="4.95"/><circle class="cls-8" cx="246.24" cy="428.65" r="4.95"/><ellipse class="cls-9" cx="583.68" cy="697.44" rx="73.32" ry="83.94" transform="translate(-175.29 196.37) rotate(-16.64)"/><path class="cls-7" d="M552.09,690.56c-5.34-20.36,5.2-38.76,18.49-42.28,14.94-3.94,31.79,11.29,35.67,25.11,2.53,9-1.45,13.67,2.65,19.81,7.51,11.27,27.29,5.1,29,10.63,2.35,7.59-30.94,31.71-47.5,22.4-10-5.65-9.46-21.08-14.53-21.14-7.93-.08-10.38,37.68-19.82,38.31-5,.34-7.16-9.89-22.46-38.31-9.4-17.46-14.12-23.93-11.89-26.42C523.05,677.17,528,675.88,552.09,690.56Z"/><path class="cls-10" d="M246.24,846.22H1498.72a0,0,0,0,1,0,0v9.53a27.18,27.18,0,0,1-27.18,27.18H273.42a27.18,27.18,0,0,1-27.18-27.18v-9.53A0,0,0,0,1,246.24,846.22Z"/><path class="cls-11" d="M1090.79,364.26V616.37a12,12,0,0,1-12,12h-39.53v40.16a7.33,7.33,0,0,1-11.47,6.06l-67.72-46.22H625.87a12,12,0,0,1-12-12V364.26a12,12,0,0,1,12-12h452.92A12,12,0,0,1,1090.79,364.26Z"/><path class="cls-4" d="M692.07,456.84a4.56,4.56,0,0,1-7.46,3.55,3.31,3.31,0,0,1-.27-.26l-35.48-35.48a10,10,0,0,1,0-14.19L684.34,375a3.31,3.31,0,0,1,.27-.26,4.56,4.56,0,0,1,7.46,3.55Z"/><path class="cls-4" d="M671.66,409.33c.64-.59,1.11-1.07,1.66-1.52s1.08-.83,1.62-1.19a20.51,20.51,0,0,1,3.32-1.71,20.92,20.92,0,0,1,6.78-1.45,25.7,25.7,0,0,1,3.4.11l3.38.44c2.26.35,4.51.76,6.76,1.27a73.14,73.14,0,0,1,13.3,4.44c1.08.5,2.15,1,3.23,1.56s2.11,1.17,3.16,1.76,2.05,1.31,3.07,2a36.16,36.16,0,0,1,2.95,2.18l1.45,1.14c.48.38.92.83,1.38,1.24.89.86,1.83,1.64,2.65,2.59s1.69,1.81,2.48,2.76l2.24,3a51.73,51.73,0,0,1,6.5,13,56.81,56.81,0,0,1,1.61,26.92,5.33,5.33,0,0,1-10.45.15l0-.15c-1.57-7.52-3.76-14.44-7-20.21a44.06,44.06,0,0,0-5.76-7.64,38.51,38.51,0,0,0-7.28-5.8,20.52,20.52,0,0,0-2-1.19c-.71-.36-1.36-.78-2.12-1.09s-1.43-.71-2.19-1l-2.27-.9a64,64,0,0,0-9.69-2.71c-1.68-.35-3.39-.64-5.11-.88s-3.47-.32-5.21-.73a22.45,22.45,0,0,1-5.26-1.93,25.61,25.61,0,0,1-2.71-1.63,14.13,14.13,0,0,1-2.74-2.37l-1.59-1.94A6.23,6.23,0,0,1,671.66,409.33Z"/><line class="cls-12" x1="675.01" y1="504.18" x2="1019.43" y2="504.18"/><line class="cls-12" x1="675.01" y1="537.21" x2="1019.43" y2="537.21"/><line class="cls-12" x1="675.01" y1="570.9" x2="1019.43" y2="570.9"/><line class="cls-12" x1="789.55" y1="450.02" x2="1019.43" y2="450.02"/><line class="cls-12" x1="852.33" y1="417.56" x2="1019.43" y2="417.56"/><path class="cls-13" d="M150.1,72V273.2c0,5.27,6.47,9.58,14.38,9.58h47.36v32.06c0,4.71,7.91,7.49,13.74,4.84l81.13-36.9h400.4c7.91,0,14.38-4.31,14.38-9.58V72c0-5.26-6.47-9.57-14.38-9.57H164.48C156.57,62.38,150.1,66.69,150.1,72Z"/><line class="cls-12" x1="682.09" y1="170.78" x2="374.63" y2="170.78"/><line class="cls-12" x1="682.09" y1="203.81" x2="374.07" y2="203.81"/><line class="cls-12" x1="682.09" y1="237.5" x2="337.67" y2="237.5"/><line class="cls-12" x1="682.48" y1="133.08" x2="452.61" y2="133.08"/><path class="cls-4" d="M346.63,108.11v65.18a12,12,0,0,1-12,12H204.72a11.69,11.69,0,0,1-4.07-.72,12,12,0,0,1-7.93-11.28V108.11a12,12,0,0,1,7.79-11.23,11.78,11.78,0,0,1,4.21-.77H334.63a12,12,0,0,1,12,12Z"/><path class="cls-9" d="M298.33,141l42.52,42.52a11.91,11.91,0,0,1-6.22,1.75H204.72a11.69,11.69,0,0,1-4.07-.72l43.78-43.77"/><path class="cls-9" d="M340,97.1,297.13,140l-18.36,18.35a12,12,0,0,1-17,0L199.31,95.88a11.78,11.78,0,0,1,4.21-.77H333.43A12,12,0,0,1,340,97.1Z"/><circle class="cls-4" cx="727.65" cy="64.55" r="49.54"/><text class="cls-14" transform="translate(713.83 95.11)">!</text></g></g></svg>