<svg xmlns="http://www.w3.org/2000/svg" viewBox="0 0 1682.89 1059.18"><defs><style>.cls-1,.cls-3{fill:#b6dce1;}.cls-2,.cls-4{fill:#f6cdd7;}.cls-11,.cls-12,.cls-15,.cls-16,.cls-2,.cls-3,.cls-6,.cls-7,.cls-8{stroke:#231f20;}.cls-11,.cls-12,.cls-13,.cls-15,.cls-2,.cls-3,.cls-5,.cls-6,.cls-7,.cls-8,.cls-9{stroke-miterlimit:10;}.cls-3,.cls-7{stroke-width:1.28px;}.cls-11,.cls-12,.cls-13,.cls-14,.cls-16,.cls-5,.cls-8,.cls-9{fill:none;}.cls-13,.cls-5{stroke:#fff;}.cls-5{stroke-width:1.46px;}.cls-6{fill:#f2d0b3;}.cls-15,.cls-18,.cls-7{fill:#fff;}.cls-9{stroke:#845925;}.cls-10{fill:#231f20;}.cls-11{stroke-width:24px;}.cls-12{stroke-width:11px;}.cls-13{stroke-width:2px;}.cls-15{stroke-width:1.12px;}.cls-16{stroke-linecap:round;stroke-linejoin:round;stroke-width:1.14px;}.cls-17{fill:#b7cd96;}</style></defs><g id="Layer_2" data-name="Layer 2"><g id="Layer_4" data-name="Layer 4"><path class="cls-1" d="M1563.07,545.1c0,228.5-226.63,422.17-540.09,489.08l-.82.17q-49.6,10.55-101.94,16.76a1186.4,1186.4,0,0,1-138.68,8.07,1184.47,1184.47,0,0,1-151-9.58q-49.29-6.35-96.24-16.67l-.82-.18C223.46,964.55,0,772,0,545.1c0-91.28,36.16-177,99.59-251.28,0,0,0,0,0,0l.15-.18q3.09-3.63,6.27-7.21l.29-.33a583,583,0,0,1,75.08-70.3l1.57-1.24h0q3.07-2.4,6.21-4.8h0l1.42-1.08C333.91,99.85,545.51,31,781.54,31c166.91,0,321.6,34.42,448.56,93.06l2.17,1,.92.43,2.14,1q25,11.74,48.54,24.76l.66.36q17.58,9.72,34.26,20.12C1469.23,265.45,1563.07,398.07,1563.07,545.1Z"/><path class="cls-2" d="M556.71,288.43c57.84-68.85,173.92-65.15,228.55-63.41,66.54,2.12,151.9,4.84,202.57,61.65,16.77,18.8,16.82,29,55.05,77.06,35.52,44.63,48.36,52,51.91,75,3.72,24.26-8.67,28.15-24,88-10.16,39.76-15.11,59.62-10.33,81.37,7.88,35.81,30,38.1,33,68.25,3.06,30-17.45,40.26-28.62,74.87-19.68,61,23.82,91.43,11,129.9-20.64,62-160.45,63.94-310.46,66.06-13.75.19-167,1.1-237.14-59.67-10.21-8.84-19.19-17.84-25.1-32.37-16.64-40.9,17.32-67,13.21-117.58-3.72-45.84-31.65-42.38-40.29-91.81-8.71-49.76,22.81-61.1,16.51-118.9-5.32-48.89-29-51-24.44-85.21.13-1,.28-2.15.55-3.57,6.46-33.92,53-98.16,53-98.16C548.28,303.4,545.94,301.26,556.71,288.43Z"/><path class="cls-3" d="M1023,974.85v58.33q-50,10.66-102.76,16.93a1186.4,1186.4,0,0,1-138.68,8.07,1184.47,1184.47,0,0,1-151-9.58q-49.73-6.4-97.06-16.85v-56.9a242.78,242.78,0,0,1,11.74-74.75C572.19,816.77,642.81,752.61,729.79,735A244.75,244.75,0,0,1,1023,974.85Z"/><path class="cls-4" d="M1073.5,17.24l10.17,92.93a17.14,17.14,0,0,1-6.93,15.54,18.12,18.12,0,0,1-8.89,3.5L876.36,150.16a18,18,0,0,1-6.11-.37A17.34,17.34,0,0,1,856.8,135L846.64,42.06a17.28,17.28,0,0,1,9.73-17.26A17.86,17.86,0,0,1,862.45,23L1053.94,2.07a18.27,18.27,0,0,1,10,1.77A17.13,17.13,0,0,1,1073.5,17.24Z"/><path class="cls-5" d="M1007.44,72l69.3,53.76a18.12,18.12,0,0,1-8.89,3.5L876.36,150.16a18,18,0,0,1-6.11-.37L928,80.33"/><path class="cls-5" d="M1062.07,2.61l-56.56,68.11-24.2,29.12a18.26,18.26,0,0,1-25,2.73l-101.86-79a18.2,18.2,0,0,1,6.09-1.77L1052,.84A18.15,18.15,0,0,1,1062.07,2.61Z"/><path class="cls-6" d="M833.38,668.56a12,12,0,0,0-12-12H741.7a12,12,0,0,0-12,12v61.21c0,.25,0,.5,0,.75,0,.5,0,1,0,1.5a51.84,51.84,0,0,0,103.68,0c0-.5,0-1,0-1.5,0-.25,0-.5,0-.75Z"/><path class="cls-6" d="M972.28,389a71.24,71.24,0,0,0-71-71h-245a71.24,71.24,0,0,0-71,71V510.46c0,.11,0,.22,0,.33s0,.45,0,.67C585.22,618.35,671.87,705,778.75,705s193.53-86.64,193.53-193.53c0-.22,0-.44,0-.67s0-.22,0-.33Z"/><path class="cls-7" d="M846.93,577.63a65.4,65.4,0,1,1-130.79,0C716.14,541.52,846.93,541.52,846.93,577.63Z"/><path class="cls-8" d="M630.58,465.43a56.77,56.77,0,0,1,67.64-43.35"/><path class="cls-9" d="M857.07,423a56.77,56.77,0,0,1,68.58,41.83"/><path class="cls-2" d="M954.57,310.24c4.91,27.14-86.2,70.19-144,89.83-84.9,28.85-115.64,13.21-148,44.92-56.65,55.57-19.86,160.11-33,162.5-17.19,3.11-110-169.64-37-261.58,32.07-40.37,82.34-47.82,151.93-58.13C833.61,274.57,949.28,281,954.57,310.24Z"/><path class="cls-4" d="M923.28,264.5c4.91,27.14-86.19,70.19-144,89.83-84.9,28.84-115.64,13.2-148,44.92-56.64,55.57-19.86,160.11-33,162.49-17.19,3.11-110-169.63-37-261.57,32.06-40.37,82.33-47.82,151.92-58.13C802.32,228.83,918,235.29,923.28,264.5Z"/><circle class="cls-10" cx="845.63" cy="484.32" r="19.51"/><path class="cls-8" d="M776.57,534.65a14.25,14.25,0,0,0,2.18.16,15.49,15.49,0,1,0,0-31,14.25,14.25,0,0,0-2.18.16"/><circle class="cls-10" cx="706.18" cy="484.32" r="19.51"/><path class="cls-3" d="M1046.55,528.42a65.78,65.78,0,0,1-65.78,65.78c-36.33,0-36.33-131.56,0-131.56A65.78,65.78,0,0,1,1046.55,528.42Z"/><ellipse class="cls-10" cx="1029.03" cy="528.42" rx="19.51" ry="50.1"/><path class="cls-3" d="M510.93,528.42a65.78,65.78,0,0,0,65.78,65.78c36.33,0,36.33-131.56,0-131.56A65.78,65.78,0,0,0,510.93,528.42Z"/><ellipse class="cls-10" cx="528.45" cy="528.42" rx="19.51" ry="50.1"/><circle class="cls-10" cx="754.36" cy="678.13" r="16.65"/><path class="cls-11" d="M528.45,528.42c-23.33-212.31,122.68-299,241.54-304.1,123.28-5.28,278.57,80.07,259,304.1"/><path class="cls-12" d="M524.36,557.11C553.89,592.05,640.57,685,760.84,685.25"/><path class="cls-1" d="M1022.16,1027.14v7.21q-49.6,10.55-101.94,16.76a1186.4,1186.4,0,0,1-138.68,8.07,1184.47,1184.47,0,0,1-151-9.58q-49.29-6.35-96.24-16.67v-5.79A238.74,238.74,0,0,1,564.5,910.81a244.13,244.13,0,0,1,213.75-126c1.1,0,2.19,0,3.28,0a244.93,244.93,0,0,1,220.21,145.49,238.88,238.88,0,0,1,20.42,96.77Z"/><path class="cls-8" d="M630.58,1048.6V988.72a66.85,66.85,0,0,1-20.81-17.84c-13.06-17.12-14.2-36.44-13.61-47.29.18-3.27.52-5.77.73-7.2"/><path class="cls-8" d="M920.22,1050.11V988.72a65.74,65.74,0,0,0,33.83-50,80,80,0,0,0-.14-22.3"/><circle class="cls-13" cx="225.61" cy="343.16" r="92.11"/><circle class="cls-13" cx="225.61" cy="343.16" r="96.71"/><line class="cls-13" x1="229.24" y1="279.65" x2="229.24" y2="348.55"/><line class="cls-13" x1="229.24" y1="348.55" x2="267.12" y2="376.06"/><line class="cls-14" x1="776.57" y1="536.52" x2="776.57" y2="536.36"/><line class="cls-14" x1="776.57" y1="505.7" x2="776.57" y2="505.69"/><path class="cls-15" d="M1111,283.85v262c0,6.86,6.47,12.47,14.37,12.47h47.36V600c0,6.13,7.91,9.76,13.74,6.3l81.14-48H1668c7.91,0,14.38-5.61,14.38-12.47v-262c0-6.86-6.47-12.47-14.38-12.47H1125.32C1117.42,271.38,1111,277,1111,283.85Z"/><line class="cls-16" x1="1642.93" y1="412.5" x2="1335.48" y2="412.5"/><line class="cls-16" x1="1642.93" y1="455.49" x2="1334.92" y2="455.49"/><line class="cls-16" x1="1642.93" y1="499.35" x2="1298.52" y2="499.35"/><line class="cls-16" x1="1643.33" y1="363.42" x2="1413.45" y2="363.42"/><circle class="cls-4" cx="1203.37" cy="364.2" r="57.17"/><circle class="cls-17" cx="1274.37" cy="466.89" r="0.36"/><rect class="cls-18" x="1188.18" y="351.49" width="84.47" height="5.11" rx="1.34" transform="translate(123.06 996.73) rotate(-46.18)"/><path class="cls-18" d="M1174.61,346.57l31,36.43c.23.27-2.78,4.2-3.89,3.31l-31-36.43c-.23-.26,0-.85.56-1.31l1.94-1.65C1173.76,346.46,1174.38,346.31,1174.61,346.57Z"/></g></g></svg>