<svg xmlns="http://www.w3.org/2000/svg" viewBox="0 0 1811.49 1186.68"><defs><style>.cls-1{fill:#b6dce1;}.cls-11,.cls-18,.cls-2,.cls-9{fill:#f2d0b4;}.cls-11,.cls-12,.cls-2,.cls-3,.cls-4,.cls-9{stroke:#000;}.cls-10,.cls-11,.cls-12,.cls-13,.cls-15,.cls-2,.cls-3,.cls-4,.cls-6,.cls-7,.cls-9{stroke-miterlimit:10;}.cls-2,.cls-3,.cls-4,.cls-6{stroke-width:1.5px;}.cls-13,.cls-15,.cls-17,.cls-3{fill:#fff;}.cls-12,.cls-14,.cls-16,.cls-4,.cls-6,.cls-7{fill:none;}.cls-10,.cls-5{fill:#b7cd96;}.cls-10,.cls-13,.cls-14,.cls-15,.cls-16,.cls-6,.cls-7{stroke:#231f20;}.cls-7{stroke-width:1.33px;}.cls-8{font-size:154.71px;font-family:FuturaNewLight-Reg, Futura New;}.cls-9{stroke-width:1.46px;}.cls-10{stroke-width:1.58px;}.cls-11{stroke-width:1.65px;}.cls-12{stroke-width:1.46px;}.cls-13{stroke-width:1.12px;}.cls-14,.cls-16{stroke-linecap:round;stroke-linejoin:round;}.cls-14{stroke-width:1.14px;}.cls-15{stroke-width:1px;}.cls-16{stroke-width:1.02px;}</style></defs><g id="Layer_2" data-name="Layer 2"><g id="Layer_9" data-name="Layer 9"><path class="cls-1" d="M1811.49,594.11c0,231.81-202.34,432.52-497.17,529.88l-.75.25a1196.32,1196.32,0,0,1-124.63,33.62l-.94.2q-29.74,6.32-60.37,11.3l-1,.16q-27.75,4.51-56.15,7.86a1367.23,1367.23,0,0,1-159.85,9.3,1365.22,1365.22,0,0,1-174-11l-2.89-.38-.91-.12q-54.84-7.22-107.13-18.72l-1-.2q-52.54-11.55-102.06-27.15l-.13,0C219.27,1033.65,9.78,830,9.78,594.11c0-105.21,41.68-204,114.79-289.64h0l.17-.21q3.57-4.19,7.23-8.31l.34-.38a671.5,671.5,0,0,1,86.54-81l1.81-1.43h0q3.54-2.78,7.16-5.54h0l1.64-1.24C394.67,80.88,638.57,1.56,910.64,1.56c192.39,0,370.7,39.67,517,107.27.85.38,1.67.76,2.5,1.15l1.07.49,2.46,1.16q28.86,13.53,56,28.54l.76.41q20.26,11.21,39.49,23.19C1703.32,271.77,1811.49,424.64,1811.49,594.11Z"/><path class="cls-2" d="M639.09,639.74,637.83,641v-2.91Q638.47,638.9,639.09,639.74Z"/><path class="cls-2" d="M698.78,561.53a36.29,36.29,0,0,0-18.54,10L637.83,613.9V537.14a36.7,36.7,0,0,1,60.95,24.39Z"/><path class="cls-2" d="M746.51,816.88A112.51,112.51,0,0,0,673,711.35c-3.36-1.24-6.79-2.33-10.29-3.24a107,107,0,0,0-12.61-2.55l14-13.95,68.14-68.14a36.75,36.75,0,0,0-52-52L637.84,613.9V537.14c-.55.49-1.09,1-1.62,1.52l-86.59,86.6a36,36,0,0,0-3.79,4.45,62.15,62.15,0,0,0-18.76,74.74l19.13,42.19L597.6,860a61.72,61.72,0,0,0,5.72,10l-16,49.21-60,184.36-1.62,5a63.67,63.67,0,0,0-3.15,19.5l.13,0q49.44,15.54,102.06,27.15l1,.2q52.2,11.46,107.13,18.72l.91.12,23-70.7L850,816.88Z"/><path class="cls-2" d="M855.44,800.19,850,816.88H746.5A112.51,112.51,0,0,0,673,711.35c-3.36-1.24-6.79-2.33-10.29-3.24a63.29,63.29,0,0,1,6.24-5.69,64.51,64.51,0,0,1,60.21-11.06L814.11,719A64.61,64.61,0,0,1,855.44,800.19Z"/><path class="cls-2" d="M500.44,619.24l-1.26,1.26v-2.91Q499.83,618.4,500.44,619.24Z"/><path class="cls-2" d="M673,711.35c-3.36-1.24-6.79-2.33-10.29-3.24a107,107,0,0,0-12.61-2.55l14-13.95,4.9,10.81Z"/><path class="cls-3" d="M990.56,382.45V783.89a33.09,33.09,0,0,1-33,33H746.5A112.51,112.51,0,0,0,673,711.35c-3.36-1.24-6.79-2.33-10.29-3.24a107,107,0,0,0-12.61-2.55l82.09-82.09a36.75,36.75,0,0,0-52-52L637.83,613.9V382.45a33.09,33.09,0,0,1,33-33H957.56A33.09,33.09,0,0,1,990.56,382.45Z"/><line class="cls-4" x1="637.83" y1="613.9" x2="597.84" y2="653.89"/><path class="cls-5" d="M798.27,379.43l.61,13.3S805,388.1,798.27,379.43Z"/><path class="cls-5" d="M801.37,392.06s7.29-2.3,3.93-12.73l-3.93,12.73Z"/><path class="cls-5" d="M804,391.7s7.57,1.09,9-9.78l-9,9.78Z"/><path class="cls-5" d="M807.91,406.57c-1.6-.43-2.44-.7-2.44-.7l.45-2.1,1.57.29.16-.36,1.19.52-.05-.29.34-.06-.33-.8-1.9-.39-.56-.11c.47-.4,23.85-14.51,23.85-14.51s.78,1.27-1.29,3.42a60.13,60.13,0,0,1-7.84,5.15l10.67-4.74s.74,2.8-6.69,6.44c4.05-1.3,7.31-2.34,7.3-2.37-.48,1.74-2.69,3.27-5.5,4.57l5-.95s.09,2.9-8.32,4.56l6.38-.21s-.3,2.44-7.25,3l4.91.92s-.79,2.2-7.25,1.39l4,1.72s-1.48,2.37-9.2-.92a64.78,64.78,0,0,1-6.62-3.16l-.52,0Z"/><path class="cls-5" d="M840.8,413.36s-7-2.3-14.2-4.67c-6-2-12.22-4-14.79-4.8l-.21-4.56-.08-1.76a6.6,6.6,0,0,0-5.06-6.09h0a6.33,6.33,0,0,0-1.8-.17h-.27l-1.69.08-1.13.05-1.56.07h0l-.68,0a1.85,1.85,0,0,0-.48.08,2.09,2.09,0,0,0-.82.4l0,0a2.26,2.26,0,0,0-.39.37,1,1,0,0,0-.15.21l-.09.15a2.55,2.55,0,0,0-.23.62,2.63,2.63,0,0,0,0,.49V394l0,1.11,0,.53.1,2.36.29,6.25a12.76,12.76,0,0,0-1.2,14.17c-2.29,1.53-3.5,4.43-4,6h0l-.13.39h0l0,.13h0l0,.05-.09.36a1.27,1.27,0,0,1,0,.15h0l.23-.08.43-.15.29-.1,4.18-1.43h0l3.12-1.07a12.68,12.68,0,0,0,6.93,2.22,7.84,7.84,0,0,0,2.16,4.43h0s0,0,0,.06l.14.16a16.51,16.51,0,0,0,3.26,2.57h0a1.11,1.11,0,0,1,.16.11l0,0,.05,0h0c0-.06,0-.12,0-.17s0-.2,0-.29,0-.14,0-.2c0-.4,0-.66,0-.83a.17.17,0,0,0,0-.07v-.18l-.31-6.77-.11-2.38c2.17,4,4,3.73,4,3.73l-1.44-4.7c4.09,6.19,6.57,5.24,6.57,5.24l-2.84-4.92c5.61,5.6,7.93,4.05,7.93,4.05L822,419.5c7.67,6,10.11,3.81,10.11,3.81l-4.51-3.61c3.2,1.47,6.17,2.25,8,1.37-.06,0-3.36-2-7.46-4.55,8.66,3.72,10.52,1,10.52,1l-12-5.69c4.61,1.55,8.89,2.87,10.26,2.95C840.28,415,840.8,413.36,840.8,413.36Z"/><path class="cls-5" d="M793.06,394.07s.38-3.29,4.84-2.07-.82,3.13-.82,3.13Z"/><path class="cls-5" d="M794.39,395.84s-.16,2.44,3.23,2.15-.17-2.37-.17-2.37Z"/><path class="cls-5" d="M798,392.05c3.75,0,7.27,2.59,7.43,6s-3.31,6.46-7.22,6.64c-.2,0-.41,0-.61,0L797.08,394A2.34,2.34,0,0,1,798,392.05Z"/><path class="cls-5" d="M802.15,396.11a1.42,1.42,0,1,1-1.48-1.35A1.42,1.42,0,0,1,802.15,396.11Z"/><path class="cls-5" d="M806.62,399.8a2.75,2.75,0,1,1-2.87-2.62A2.74,2.74,0,0,1,806.62,399.8Z"/><path class="cls-5" d="M801.42,395.79a.35.35,0,0,1-.33.37.36.36,0,0,1-.37-.34.35.35,0,1,1,.7,0Z"/><path class="cls-5" d="M792.33,425a7.35,7.35,0,0,0-4.39-2h0a10.74,10.74,0,0,1,1.78,1.1C790.63,424.83,791.24,425.59,792.33,425Z"/><path class="cls-5" d="M792,425.84s-2.77.52-4.41-1.22h0S792.38,423.9,792,425.84Z"/><path class="cls-5" d="M791.55,424.65s2.6,1.1,3,3.45h0S790.17,426.07,791.55,424.65Z"/><path class="cls-5" d="M792.33,424.44l-.78,1.41a12.1,12.1,0,0,0,5.73-2.13A40.14,40.14,0,0,1,792.33,424.44Z"/><path class="cls-5" d="M793.13,425.44a7.34,7.34,0,0,0-3.82-2.94h0a10.85,10.85,0,0,1,1.48,1.47C791.51,424.94,791.93,425.82,793.13,425.44Z"/><path class="cls-5" d="M813,432.37a7.36,7.36,0,0,0-4.8.47h0a11.44,11.44,0,0,1,2.09.06C811.45,433.12,812.36,433.47,813,432.37Z"/><path class="cls-5" d="M813.33,433s-2.27,1.67-4.5.83h0S812.82,431.05,813.33,433Z"/><path class="cls-5" d="M811.5,432.39s2.7-.83,4.52.71h0S811.35,434.36,811.5,432.39Z"/><path class="cls-5" d="M813.07,432.33a7.38,7.38,0,0,0-4.79-.63h0a11,11,0,0,1,2,.53C811.41,432.71,812.21,433.26,813.07,432.33Z"/><path class="cls-5" d="M809.38,429.38s1.87,2.42,3.73,3c-.06-1.36-.08-1.74-.08-1.74A12,12,0,0,1,809.38,429.38Z"/><line class="cls-6" x1="698.78" y1="479.2" x2="900.73" y2="479.2"/><line class="cls-6" x1="698.78" y1="509.59" x2="900.73" y2="509.59"/><line class="cls-6" x1="698.78" y1="537.14" x2="900.73" y2="537.14"/><line class="cls-7" x1="740.88" y1="567.53" x2="900.73" y2="567.53"/><text class="cls-8" transform="translate(832.34 752.55)">€</text><path class="cls-9" d="M1284.94,671.48l-35.6,35.61h0l-78.2-78.2a37.52,37.52,0,0,0-43.11-7l-64.13-64.14-4.16-4.16a37.94,37.94,0,0,1,53.66-53.66l4.16,4.16Z"/><path class="cls-9" d="M1154,784.71c-23.93,15.74-42,38.69-50.75,65.48a31.06,31.06,0,0,1-34.47-6.39l-49.15-49.15a88.6,88.6,0,0,1,28.37-20.2l9.81-4.41A90.07,90.07,0,0,1,1154,784.71Z"/><path class="cls-10" d="M1309.18,647.24l-24.24,24.24-35.6,35.61h0l-78.2-78.2a37.52,37.52,0,0,0-43.11-7,36.8,36.8,0,0,0-9.76,7l-2.52,2.53a37.49,37.49,0,0,0,0,52.87l78.19,78.2-6.19,6.19a135.91,135.91,0,0,0-33.7,16c-23.93,15.74-42,38.69-50.75,65.48a31.06,31.06,0,0,1-34.47-6.39l-49.15-49.15L945.22,720.2a31.07,31.07,0,0,1,0-43.8l118.67-118.66,77.89-77.89a31.05,31.05,0,0,1,43.8,0l123.6,123.59A31.07,31.07,0,0,1,1309.18,647.24Z"/><path class="cls-11" d="M1327.82,746.3v0a45,45,0,0,1-1.23,6.07l-10.74,39-57,207.15,3.85,8.57,48.63,108.28c1.13,2.51,2.13,5,3,7.6l-.75.25a1196.32,1196.32,0,0,1-124.63,33.62l-.94.2q-29.74,6.32-60.37,11.3l-1,.16-123.7-275.44a90,90,0,0,1,16.73-98.43l49.15,49.15a31.06,31.06,0,0,0,34.47,6.39c8.72-26.79,26.83-49.74,50.75-65.48a135.91,135.91,0,0,1,33.7-16q4.77-1.51,9.7-2.68l-3.51-3.51-78.19-78.2a37.49,37.49,0,0,1,0-52.87l2.52-2.53a36.8,36.8,0,0,1,9.76-7,37.54,37.54,0,0,1,43.12,7l78.19,78.2h0l35.6-35.61,34.33,34.33A38.06,38.06,0,0,1,1327.82,746.3Z"/><rect x="917.7" y="598.75" width="338.74" height="47.56" transform="translate(-121.8 951.01) rotate(-45)"/><circle class="cls-4" cx="1270.6" cy="624.09" r="21.8"/><rect class="cls-12" x="1001.39" y="709.07" width="124.61" height="22.58" rx="4.88" transform="translate(-197.83 963.14) rotate(-45)"/><line class="cls-4" x1="1205.01" y1="448.26" x2="1163.7" y2="406.96"/><line class="cls-4" x1="1225.82" y1="448.26" x2="1225.82" y2="385.62"/><line class="cls-4" x1="1246.62" y1="448.26" x2="1286.6" y2="408.29"/><line class="cls-4" x1="1249.21" y1="764.79" x2="1277.88" y2="793.46"/><path class="cls-13" d="M1044.64,13V275c0,6.86,6.47,12.47,14.38,12.47h47.36v41.73c0,6.13,7.91,9.76,13.74,6.3l81.13-48h400.4c7.91,0,14.38-5.61,14.38-12.47V13c0-6.86-6.47-12.47-14.38-12.47H1059C1051.11.56,1044.64,6.17,1044.64,13Z"/><line class="cls-14" x1="1576.63" y1="141.68" x2="1269.18" y2="141.68"/><line class="cls-14" x1="1576.63" y1="184.67" x2="1268.62" y2="184.67"/><line class="cls-14" x1="1576.63" y1="228.53" x2="1232.21" y2="228.53"/><line class="cls-14" x1="1577.02" y1="92.6" x2="1347.15" y2="92.6"/><circle class="cls-5" cx="1110.05" cy="66.53" r="26.07"/><circle class="cls-5" cx="1187.35" cy="141.68" r="26.07"/><rect class="cls-5" x="1139.99" y="43.1" width="11.89" height="125.61" rx="5.94" transform="translate(316.54 -691.9) rotate(38.61)"/><path class="cls-15" d="M499.18,239V479.49c0,6.3-5.65,11.45-12.55,11.45H445.3v38.3c0,5.63-6.91,9-12,5.78l-70.81-44.08H13.05C6.15,490.94.5,485.79.5,479.49V239c0-6.3,5.65-11.45,12.55-11.45H486.63C493.53,227.59,499.18,232.74,499.18,239Z"/><line class="cls-16" x1="34.88" y1="357.12" x2="303.21" y2="357.12"/><line class="cls-16" x1="34.88" y1="396.58" x2="303.7" y2="396.58"/><line class="cls-16" x1="34.54" y1="312.08" x2="235.16" y2="312.08"/><rect class="cls-5" x="335.24" y="311.65" width="131.61" height="126.03" rx="26.86"/><path class="cls-5" d="M401.05,280.47a21.77,21.77,0,1,1-21.77,21.77,21.8,21.8,0,0,1,21.77-21.77m0-24.86a46.63,46.63,0,1,0,46.63,46.63,46.63,46.63,0,0,0-46.63-46.63Z"/><circle class="cls-17" cx="401.05" cy="366.7" r="14.63"/><rect class="cls-17" x="395.52" y="367.18" width="11.63" height="30.1"/><path class="cls-18" d="M735.18,1167l-2.35,8.18q-54.84-7.22-107.13-18.72l-1-.2q-52.54-11.55-102.06-27.15l6.2-21.53A17,17,0,0,1,550,1095.89l173.55,50A17,17,0,0,1,735.18,1167Z"/><path class="cls-18" d="M1313.57,1124.24a1196.32,1196.32,0,0,1-124.63,33.62l-.94.2q-29.74,6.32-60.37,11.3l-.12-.26a16.56,16.56,0,0,1,8.17-21.95l141.13-64.59a16.56,16.56,0,0,1,22,8.17l13.61,29.73A16.44,16.44,0,0,1,1313.57,1124.24Z"/></g></g></svg>