<svg xmlns="http://www.w3.org/2000/svg" viewBox="0 0 510.97 333.17"><defs><style>.cls-1{fill:none;stroke:#231f20;stroke-miterlimit:10;stroke-width:10px;}.cls-2{font-size:120px;fill:#231f20;font-family:Futura-Medium, Futura;font-weight:500;}</style></defs><g id="Layer_2" data-name="Layer 2"><g id="Слой_1" data-name="Слой 1"><path class="cls-1" d="M502,314.79c-39-17.27-56.4-50.73-64-73.25a6.25,6.25,0,0,1,2.48-7.15c22.37-15.6,38-34.83,44.13-56.82C505,104.9,414.79,29.83,283.12,9.89S28.21,32.72,7.86,105.39s69.9,147.75,201.58,167.68a422.75,422.75,0,0,0,100.66,3.26,7.16,7.16,0,0,1,4.31,1C342.34,294,420.85,335.38,499.9,327.08A6.4,6.4,0,0,0,502,314.79Z"/><text class="cls-2" transform="matrix(0.93, 0.14, -0.15, 0.99, 76.22, 155.33)">¡Hola!</text></g></g></svg>